<svg xmlns="http://www.w3.org/2000/svg" width="666.7" height="666.7"><defs><clipPath clipPathUnits="userSpaceOnUse" id="a"><path d="M0 500h500V0H0z"/></clipPath><clipPath clipPathUnits="userSpaceOnUse" id="b"><path d="M0 500h500V0H0z"/></clipPath><clipPath clipPathUnits="userSpaceOnUse" id="c"><path d="M0 500h500V0H0z"/></clipPath><clipPath clipPathUnits="userSpaceOnUse" id="d"><path d="M0 500h500V0H0z"/></clipPath><clipPath clipPathUnits="userSpaceOnUse" id="e"><path d="M0 500h500V0H0z"/></clipPath><clipPath clipPathUnits="userSpaceOnUse" id="f"><path d="M363 211h20v-21h-20z"/></clipPath><clipPath clipPathUnits="userSpaceOnUse" id="g"><path d="M414 212h20v-21h-20z"/></clipPath><clipPath clipPathUnits="userSpaceOnUse" id="h"><path d="M373 233h20v-23h-20z"/></clipPath><clipPath clipPathUnits="userSpaceOnUse" id="i"><path d="M0 500h500V0H0z"/></clipPath><clipPath clipPathUnits="userSpaceOnUse" id="j"><path d="M303 320h75v-75h-75z"/></clipPath><clipPath clipPathUnits="userSpaceOnUse" id="k"><path d="M123 452h75v-75h-75z"/></clipPath><clipPath clipPathUnits="userSpaceOnUse" id="l"><path d="M399 357h39v-39h-39z"/></clipPath><clipPath clipPathUnits="userSpaceOnUse" id="m"><path d="M141 274h39v-39h-39z"/></clipPath><clipPath clipPathUnits="userSpaceOnUse" id="n"><path d="M231 454h39v-39h-39z"/></clipPath><clipPath clipPathUnits="userSpaceOnUse" id="o"><path d="M61 370h92v-92H61z"/></clipPath><clipPath clipPathUnits="userSpaceOnUse" id="p"><path d="M304 447h92v-92h-92z"/></clipPath><clipPath clipPathUnits="userSpaceOnUse" id="q"><path d="M0 500h500V0H0z"/></clipPath><clipPath clipPathUnits="userSpaceOnUse" id="r"><path d="M0 500h500V0H0z"/></clipPath><clipPath clipPathUnits="userSpaceOnUse" id="s"><path d="M246 227h53v-59h-53z"/></clipPath></defs><g clip-path="url(#a)" transform="matrix(1.33333 0 0 -1.33333 0 667)"><path d="M82 156H68v13h28v-12zm14 6v6H69v-11h27zm-29-20H53v12h28v-12zm13 6v6l1-1H53l1 1v-12l-1 1h7l7-1h13zm17-6H83v12h28v-12zm14 6v6-1H84v1-12 1h6l7-1h14zm307-6h-14v12h28v-12zm14 6l-1 6 1-1h-28l1 1v-12l-1 1h7l7-1h14zm-14 278h-14v12h28v-12zm14 6l-1 6 1-1h-28l1 1v-12l-1 1h7l7-1h14zm1-21h-14v13h14l14-1v-11zm14 6v6h-27v-11h27zm-380 9H53v12h28v-12zm13 6v6l1-1H53l1 1v-12l-1 1h7l7-1h13zm152-114h15v-13h-1l-14 1h-13v12zm-13-6v-6l13 1h14v-1 12-1h-13l-14 1zm29 20h6l7 1h1v-13h-28v12zm-14-6v-6 1h27v11h-27zM87 361a19 19 0 00-28 12 19 19 0 1028-12" fill="#ececec"/><path d="M83 379a6 6 0 10-11 0 6 6 0 0011 0" fill="#fff"/><path d="M87 363v-2a19 19 0 00-20 0v2a10 10 0 0020 0" fill="#fff"/><path d="M422 236a9 9 0 10-9 16 9 9 0 009-16m10-8l6 10-3 2-1 2v2l1 3 3 1-5 10-3-1h-3l-2 1-1 2v4h-11v-3l-2-3a16 16 0 01-2-1h-2l-3 2-6-10 3-1 1-3v-2l-2-2-3-2 6-10 3 2h3l1-1 1-3v-3l12-1v4l2 2a17 17 0 011 1h3zM195 450a7 7 0 100 14 7 7 0 000-14m4-7l7 4-2 2a2 2 0 000 2l1 1 2 1h2v8h-2a2 2 0 00-2 1l-1 1a2 2 0 000 2l2 2-7 4-2-2a2 2 0 00-1-1 12 12 0 01-2 0 2 2 0 00-1 1l-2 2-7-4 2-2a2 2 0 000-2 11 11 0 01-1-1 2 2 0 00-2-1h-2v-8h2a2 2 0 002-1l1-1a2 2 0 000-2l-2-2 7-4 2 2 1 1a12 12 0 012 0 2 2 0 001-1zm190-225a7 7 0 10-14 0 7 7 0 0014 0m7 3l-4 7-2-1a2 2 0 00-2 0l-1 1-1 1v3h-8v-3a2 2 0 00-1-2 11 11 0 01-1 0 2 2 0 00-2 0l-2 1-4-7 2-1 1-2a11 11 0 010-1 2 2 0 00-1-2l-2-1 4-7 2 1a2 2 0 002 0h1l1-2v-3h8v3a2 2 0 001 2h1a2 2 0 002 0l2-1 4 7-2 1-1 2a12 12 0 010 1 2 2 0 001 2zm-87 128l3-7 9-1-6-6 1-8-7 3-8-3 2 8-6 6 8 1zm94 45a33 33 0 01-2-10h-9v1a25 25 0 003 9h8zm0-23h-9a26 26 0 00-2 10h9v-2a29 29 0 012-8m35-2a25 25 0 00-18-11v-1h-1l1 1a27 27 0 019 10v1h8zm-9 15h-11v10h9a28 28 0 002-9v-1m0-3v-5a28 28 0 00-2-5h-9v10zm-14 13v-10h-11v5a27 27 0 002 5h9zm0-13v-10h-9a26 26 0 00-2 8v2h11m27 3h-10l-2 10h9a25 25 0 003-10m0-3v-1a25 25 0 00-2-8l-1-1h-9v1a31 31 0 012 9zm-5 16h-8a29 29 0 01-8 9l-1 1v1a25 25 0 0017-11m-24-39a23 23 0 00-7 2 25 25 0 00-10 9h8a30 30 0 019-11m0 49l-1-1a29 29 0 01-8-9h-8a25 25 0 0017 10m13-38a27 27 0 00-8-9v9zm-11 0v-9c-3 2-6 5-8 9zm11 28h-8v8a24 24 0 008-8m-11 8v-8h-8l8 8" fill="#ececec"/><path d="M189 181a22 22 0 10-21 25v-22z" fill="#dcdcdc"/><path d="M194 189v-4l-22 4v21a22 22 0 0022-21" fill="#ececec"/><path d="M202 172h-23v1h23z" fill="#c8c8c8"/><path d="M204 173a1 1 0 110-2 1 1 0 010 2m0-3a2 2 0 100 4 2 2 0 000-4m23 3h-18 18zm-7-2h-11v1h11z" fill="#c8c8c8"/><path d="M83 227h-5v32h5zm7 0h-4v24h4zm8 0h-4v12h4zm8 0h-4v19h4zm8 0h-5v26h5zm8 0h-5v31h5z" fill="#ececec"/><path d="M75 263v-36h51-51v27z" fill="#ececec"/><path d="M74 262h2l-1-1h-1m0-2h1-1m0-3h1-1m0-3h2-2m0-3h2-1-1m0-2h2l-1-1-1 1m0-3h2-1-1m0-3h2-2m0-3h2-2m0-3l1 1h1l-1-1h-1m0-2h2l-1-1-1 1m0-3h2-2" fill="#ececec"/></g><g clip-path="url(#b)" transform="matrix(1.33333 0 0 -1.33333 0 667)"><path d="M45 428v-1h1l1 1a1 1 0 01-2 0m1-6v-3a1 1 0 010 3m1 13l-1 1-1-1 1-1 1 1m0-21v-1 1m1 17a1 1 0 113 0 1 1 0 01-3 0m0-7l2-1a1 1 0 11-2 1m0-7a1 1 0 113 0l-1 1-2-1m0-7a1 1 0 113 0 1 1 0 01-3 0m0-7l1-2a1 1 0 11-1 2m1 34l1 1h-1 1m0-41h-1v-3h1l1 2-1 1m0-7v-3l1 1-1 2m3-18l-1-1 1-2a1 1 0 110 3m-1 63a1 1 0 112 0l-1 1-1-1m0-7a1 1 0 112 0 1 1 0 01-2 0m0-7l1-1a1 1 0 11-1 1m0-7a1 1 0 112 0 1 1 0 01-2 0m0-8l1-1a1 1 0 11-1 1m0-7a1 1 0 112 0l-1 1-1-1m0-7a1 1 0 112 0 1 1 0 01-2 0m0-7l1-1a1 1 0 11-1 1m0-7a1 1 0 112 0l-1 1-1-1m1-14v-2l1 1-1 1m1-8v1-1m1 76a1 1 0 113 0 1 1 0 01-3 0m0-8l2-1 1 1a1 1 0 11-3 0m0-7a1 1 0 113 0 1 1 0 01-3 0m0-7a1 1 0 113 0 1 1 0 01-3 0m0-7l2-1 1 1a1 1 0 11-3 0m1-7a1 1 0 112 0 1 1 0 01-3 0m1-8l1-1 1 1-1 2-1-2m0-7a1 1 0 112 0 1 1 0 01-3 0m1-7a1 1 0 112 0 1 1 0 01-3 0m1-7l1-1 1 1a1 1 0 11-2 0m0-7a1 1 0 112 0 1 1 0 01-2 0m0-7a1 1 0 112 0 1 1 0 01-2 0m0-7v-1l1-1 1 1-1 2-1-1m1-7h-1l1-1v-1a1 1 0 010 2m0-7l1-1v-1a1 1 0 01-1 2m3-18v-2l2 1-2 1m-1 121l1-1 2 1a1 1 0 11-3 0m0-7l1-1a1 1 0 11-1 1m11-97l1-1a1 1 0 11-1 1m0 7a1 1 0 112 0 1 1 0 01-2 0m0-21a1 1 0 112 0 1 1 0 01-2 0m0 50l1-1a1 1 0 11-1 1m-11 47l1-2a1 1 0 11-1 2m11-90a1 1 0 112 0l-1 1-1-1m-11 32l1-1a1 1 0 11-1 1m0 36l1-1a1 1 0 11-1 1m11-32a1 1 0 112 0l-1 1-1-1m-11-25l1-2a1 1 0 11-1 2m11 97a1 1 0 112 0 1 1 0 01-2 0m-4-112l1-1 2 1-1 1-2-1m4 76a1 1 0 112 0 1 1 0 01-2 0m0 7l1-2a1 1 0 11-1 2m0-51a1 1 0 112 0 1 1 0 01-2 0m0 58a1 1 0 112 0 1 1 0 01-2 0m0-22l1-1a1 1 0 11-1 1m-4-104l1-1 2 1-1 1-2-1m0-7l1-1 2 1-1 1-2-1m0 22l1-2 2 2-1 1-2-1m0 7l1-1 2 1-1 1-2-1m0 28l1-1 2 1-1 2-2-2m4 90l1-1a1 1 0 11-1 1m-4-39l1-1a1 1 0 111 2l-2-1m0-115l1-1a1 1 0 111 2l-2-1m0 72l1-2 2 2-1 1-2-1m0 21l1-1a1 1 0 111 2l-2-1m0 7a1 1 0 113 0 1 1 0 01-3 0m0 29l1-1 2 1-1 1-2-1m0-21l1-2 2 2-1 1-2-2m0 37l1-2 2 1-1 2-2-2m0-21l1-1 2 1-1 1-2-1m0-79l1-1a1 1 0 111 2l-2-1m0 36l1-1a1 1 0 111 2l-2-1m0-22l1-1a1 1 0 111 2l-2-1m4 90a1 1 0 112 0l-1 1-1-1m0-43a1 1 0 112 0 1 1 0 01-2 0m0 7a1 1 0 112 0l-1 1-1-1m0-36l1-1a1 1 0 11-1 1m-11-25l1-1a1 1 0 11-1 1m0 22l1-2 1 2a1 1 0 11-2 0m0 57l1-1 1 1a1 1 0 11-2 0m7 29l1-1 2 1-2 1-1-1m-7-79a1 1 0 112 0 1 1 0 01-2 0m7 86l1-1 2 1-1 1h-1l-1-1m-7-14a1 1 0 112 0 1 1 0 01-2 0m2-114v-2 1l-1 1m6 49l1-1 2 1-2 1-1-1m-1-83v1-1m1 18l1-1a1 1 0 110 3l-1-2m0 115l1-1a1 1 0 110 2l-1-1m-3 18l1-1a1 1 0 110 2l-1-1m-4-46l1-2 1 2a1 1 0 11-2 0m0 28a1 1 0 112 0 1 1 0 01-2 0m7 15l1-2a1 1 0 110 3l-1-1m-3 10l1-1 1 2-1 1-1-2m0-64l1-1a1 1 0 110 2l-1-1m0 50l1-1 1 1-1 1-1-1m0-7l1-1 1 1-1 1-1-1m-4-47a1 1 0 112 0 1 1 0 01-2 0m0 22a1 1 0 112 0 1 1 0 01-2 0m0-15a1 1 0 112 0 1 1 0 01-2 0m4-53l1-2 1 2-1 1-1-1m0-15l1-1 1 1-1 1-1-1m0 58l1-2 1 2-1 1-1-1m-4-33a1 1 0 112 0 1 1 0 01-2 0m4 76l1-1a1 1 0 110 2l-1-1m0-72l1-1a1 1 0 110 2l-1-1m0 14l1-1a1 1 0 110 3l-1-2m0 51l1-2 1 2-1 1-1-1m0-8l1-1a1 1 0 110 3l-1-2m0-36l1-1 1 2-1 1-1-1m1-71v-2l1 1-1 1m-1 7v-2h1a1 1 0 110 2h-1m0 85l1-1 1 1-1 1-1-1m0 7l1-1 1 1-1 1-1-1m0-72l1-1a1 1 0 110 2l-1-1m0 15l1-2 1 2-1 1-1-1m0 14l1-1 1 1-1 1-1-1m0-43a1 1 0 112 0 1 1 0 01-2 0m21 93l1-1a1 1 0 110 3l-1-2m0-7l1-1 1 1c1 1 0 1-1 1l-1-1m0 43l1-1a1 1 0 110 2l-1-1m0-79l1-1a1 1 0 110 2l-1-1m0 86l1-1 1 1c1 1 0 2-1 2l-1-2m-4-147l2-1 1 1a1 1 0 11-2 0m3 133l1-1 1 1c1 1 0 1-1 1l-1-1m0-14l1-2a1 1 0 110 3l-1-1m0-43l1-2 1 2-1 1-1-1m0 14l1-1 1 1c1 1 0 1-1 1l-1-1m0-22l1-1 1 1c1 1 0 2-1 2l-1-2m0-14l1-1 1 1c1 1 0 1-1 1l-1-1m0-7l1-1a1 1 0 110 2l-1-1m0-15l1-1 1 1c1 1 0 2-1 2l-1-2m0 8l1-2 1 2-1 1-1-1m0-15l1-1a1 1 0 110 2l-1-1m0-21l1-1a1 1 0 110 2l-1-1m0 79l1-1a1 1 0 110 2l-1-1m-4-61l2-1 1 1a1 1 0 11-2 0m3-11a1 1 0 112 0 1 1 0 01-2 0m0 7l1-1 1 1c1 1 0 1-1 1l-1-1m7 43l1-1a1 1 0 11-1 1m-10-25l1-1a1 1 0 11-1 1m3 90l1-1 2 1-2 1-1-1m-3-61a1 1 0 112 0 1 1 0 01-2 0m0 14a1 1 0 112 0 1 1 0 01-2 0m0 15l1-2 1 2a1 1 0 11-2 0m0-22l1-1a1 1 0 11-1 1m0 65a1 1 0 112 0 1 1 0 01-2 0m0-22l1-1 1 1a1 1 0 11-2 0m3-4l1-1 2 1-2 2-1-2m4 4a1 1 0 112 0l-1 1-1-1m0-65a1 1 0 112 0 1 1 0 01-2 0m0 94a1 1 0 112 0 1 1 0 01-2 0m0-7l1-2a1 1 0 11-1 2m0-15l1-1a1 1 0 11-1 1m0 7a1 1 0 112 0 1 1 0 01-2 0m3 18a1 1 0 113 0 1 1 0 01-3 0m-3-46l1-2a1 1 0 11-1 2m0-15a1 1 0 112 0 1 1 0 01-2 0m0 8a1 1 0 112 0l-1 1-1-2m0-21a1 1 0 112 0 1 1 0 01-2 0m0 7l1-1a1 1 0 11-1 1m0-21a1 1 0 112 0l-1 1-1-1m0 7l1-1a1 1 0 11-1 1m0-51a1 1 0 112 0 1 1 0 01-2 0m0-7l1-1a1 1 0 11-1 1m3 133l2-1a1 1 0 11-1 1m0-57l1-1a1 1 0 11-1 1m0 50a1 1 0 112 0l-1 1-1-1m0-7a1 1 0 112 0 1 1 0 01-2 0m0-7l1-2a1 1 0 11-1 2m0-29a1 1 0 112 0 1 1 0 01-2 0m0-14a1 1 0 112 0l-1 1-1-1m0 36a1 1 0 112 0 1 1 0 01-2 0m0-15a1 1 0 112 0l-1 1-1-1m-11-82l1-2a1 1 0 11-1 2m7 7a1 1 0 112 0l-1 1-1-1m0 86a1 1 0 112 0 1 1 0 01-2 0m0-79l1-1a1 1 0 11-1 1m-7 57a1 1 0 112 0 1 1 0 01-2 0m0-43a1 1 0 112 0 1 1 0 01-2 0m0 65l1-1a1 1 0 11-1 1m0 22l1-2a1 1 0 11-1 2m0-29a1 1 0 112 0 1 1 0 01-2 0m0-43l1-2 1 2a1 1 0 11-2 0m0-51a1 1 0 112 0 1 1 0 01-2 0m0 43l1-1a1 1 0 11-1 2m11 53l1-1a1 1 0 11-1 1m-4-68a1 1 0 112 0 1 1 0 01-2 0m3 32a1 1 0 113 0 1 1 0 01-3 0m-3-25l1-1a1 1 0 11-1 1m3 11a1 1 0 113 0 1 1 0 01-3 0m-10-25a1 1 0 112 0 1 1 0 01-2 0m0 93a1 1 0 112 0 1 1 0 01-2 0m-11-97l1-1a1 1 0 11-1 1m0-7a1 1 0 112 0l-1 1-1-1m0-7l1-1a1 1 0 11-1 1m0-7l1-1a1 1 0 11-1 1m0-7a1 1 0 112 0 1 1 0 01-2 0m0-8l1-1a1 1 0 11-1 1m3 162a1 1 0 113 0zm0-7a1 1 0 113 0 1 1 0 01-3 0m0-7l2-2a1 1 0 11-2 2m0-8a1 1 0 113 0 1 1 0 01-3 0m0-7l2-1 1 1a1 1 0 11-3 0m0-7a1 1 0 113 0 1 1 0 11-3 0m0-7a1 1 0 113 0 1 1 0 01-3 0m0-7l2-1a1 1 0 11-2 1m0-7a1 1 0 113 0 1 1 0 11-3 0m0-8l2-1 1 1-1 2-2-2m0-7l2-1 1 1a1 1 0 11-3 0m0-7a1 1 0 113 0 1 1 0 01-3 0m0-7l2-1a1 1 0 11-2 1m0-7a1 1 0 113 0 1 1 0 11-3 0m0-8a1 1 0 113 0 1 1 0 01-3 0m0-7l2-1a1 1 0 11-2 1m0-7a1 1 0 113 0 1 1 0 01-3 0m0-7l2-1 1 1-1 1-2-1m0-7a1 1 0 113 0 1 1 0 11-3 0m0-7a1 1 0 113 0 1 1 0 01-3 0m0-8l2-1a1 1 0 11-2 1m0-7a1 1 0 113 0 1 1 0 11-3 0m0-7a1 1 0 113 0 1 1 0 01-3 0m4 155l1-2a1 1 0 11-1 2m0-8a1 1 0 112 0 1 1 0 01-2 0m0-7l1-1 1 1a1 1 0 11-2 0m0-7l1-1a1 1 0 11-1 1m0-7a1 1 0 112 0 1 1 0 01-2 0m0-7l1-2a1 1 0 11-1 2m0-8a1 1 0 112 1 1 1 0 01-2 0m0-8l1-1 1 1a1 1 0 11-2 0m0-7l1-1a1 1 0 11-1 1m0-7a1 1 0 112 0 1 1 0 01-2 0m0-7l1-2 1 2a1 1 0 11-2 0m0-7l1-2a1 1 0 11-1 2m0-8a1 1 0 112 0 1 1 0 01-2 0m0-7l1-1a1 1 0 11-1 1m0-7a1 1 0 112 0 1 1 0 01-2 0m0-7l1-2 1 2a1 1 0 11-2 0m0-8l1-1a1 1 0 11-1 1m0-7a1 1 0 112 0 1 1 0 01-2 0m0-7l1-1 1 1a1 1 0 11-2 0m0-7a1 1 0 112 0 1 1 0 01-2 0m0-7a1 1 0 112 0 1 1 0 01-2 0m0-7l1-2a1 1 0 11-1 2m6 154h-2l1-1h1m-3-6l2-1a1 1 0 11-2 1m15-72l1-1a1 1 0 11-1 1m0 72l1-1a1 1 0 11-1 1m4-54l1-1a1 1 0 11-1 1m-8-65l2-1a1 1 0 11-2 1m4 69l1-2 1 2a1 1 0 11-2 0m0-43l1-2a1 1 0 11-1 2m0-36l1-2a1 1 0 11-1 2m-4 18a1 1 0 113 0 1 1 0 01-3 0m4-11l1-1 1 1a1 1 0 11-2 0m0 7a1 1 0 112 0 1 1 0 01-2 0m4-11l1-1 1 1a1 1 0 11-2 0m0 94l1-2a1 1 0 11-1 2m-8-101a1 1 0 113 0 1 1 0 01-3 0m0 7a1 1 0 113 0l-1 1-2-1m8 65a1 1 0 112 0 1 1 0 01-2 0m0 64l1-1a1 1 0 11-1 1m-4-25a1 1 0 112 0 1 1 0 01-2 0m4-97a1 1 0 112 0 1 1 0 01-2 0m0 15l1-2 1 2a1 1 0 11-2 0m-4 75l1-1 1 1a1 1 0 11-2 0m4-39l1-2 1 2a1 1 0 11-2 0m0-7l1-2a1 1 0 11-1 2m-4 39l1-1a1 1 0 11-1 1m4-54l1-1a1 1 0 11-1 1m0 7a1 1 0 112 0 1 1 0 01-2 0m0 65l1-1a1 1 0 11-1 1m-8-79l2-1a1 1 0 11-2 1m8 57a1 1 0 112 0 1 1 0 01-2 0m-4-68l1-1a1 1 0 11-1 1m0 93l1-1a1 1 0 11-1 1m4-97l1-1a1 1 0 11-1 1m0 108a1 1 0 112 0 1 1 0 01-2 0m-4-3a1 1 0 112 0 1 1 0 01-2 0m0-72a1 1 0 112 0 1 1 0 01-2 0m0-22a1 1 0 112 0 1 1 0 01-2 0m4 76a1 1 0 112 0 1 1 0 01-2 0m-4-18a1 1 0 112 0 1 1 0 01-2 0m-4-61a1 1 0 113 0l-1 1-2-1m4 46a1 1 0 112 0 1 1 0 01-2 0m0-7a1 1 0 112 0 1 1 0 01-2 0m4-32a1 1 0 112 0 1 1 0 01-2 0m0 86l1-1 1 1a1 1 0 11-2 0m-4-75l1-2 1 2a1 1 0 11-2 0m4 39l1-1 1 1a1 1 0 11-2 0m7 0a1 1 0 112 0l-1 1-1-1m-4 18l1-1 2 1-2 1-1-1m0-86l1-1a1 1 0 110 2l-1-1m4 104a1 1 0 112 0l-1 1-1-1m-4-54l1-1a1 1 0 110 2l-1-1m0 7a1 1 0 113 0 1 1 0 01-3 0m0-43l1-1a1 1 0 110 2l-1-1m0 29l1-1 2 1-2 1-1-1m0 72l1-1 2 1-2 1-1-1m4-25l1-2a1 1 0 11-1 2m-4-25l1-2 2 2-2 1-1-1m0-29l1-1a1 1 0 110 2l-1-1m4 39l1-1a1 1 0 11-1 1m-4 25l1-1 2 2-2 1-1-2m4 19a1 1 0 112 0h-1zm0-36a1 1 0 112 0 1 1 0 01-2 0m-4-11l1-1a1 1 0 110 2l-1-1m4 39l1-1a1 1 0 11-1 1m-4-89l1-2 2 2-2 1-1-2m0 87l1-2a1 1 0 110 3l-1-1m0-101l1-1 2 1-2 1-1-1m0-14l1-1 2 1-2 1-1-1m0 86l1-1 2 1-2 1-1-1m4 18a1 1 0 112 0 1 1 0 01-2 0m-4-4l1-1a1 1 0 110 3l-1-2m0-64l1-1 2 1-2 1-1-1m7-15l2-1a1 1 0 11-2 1m0-7a1 1 0 113 0 1 1 0 01-3 0m0 29l2-1a1 1 0 11-2 1m0 21l2-1a1 1 0 11-2 1m0 8a1 1 0 113 0l-1 1-2-1m-3-18a1 1 0 112 0l-1 1-1-1m0-51l1-1a1 1 0 11-1 1m0 58l1-1a1 1 0 11-1 1m0-36l1-1a1 1 0 11-1 1m3 90l2-1a1 1 0 11-2 1m0-22a1 1 0 113 0l-1 1-2-1m-3-61a1 1 0 112 0 1 1 0 01-2 0m0 36a1 1 0 112 0 1 1 0 01-2 0m3 32l2-1a1 1 0 11-2 1m0-14a1 1 0 113 0 1 1 0 01-3 0m0 22a1 1 0 113 0 1 1 0 01-3 0m0-101l2-1a1 1 0 11-2 1m-3 4a1 1 0 112 0 1 1 0 01-2 0m0 28l1-1a1 1 0 11-1 1m0 8a1 1 0 112 0 1 1 0 01-2 0m3 3a1 1 0 113 0 1 1 0 01-3 0m0 72a1 1 0 113 0 1 1 0 01-3 0m4-4a1 1 0 112 0 1 1 0 01-2 0m-4-39l2-1a1 1 0 11-2 1m0-50a1 1 0 113 0 1 1 0 01-3 0m0 28l2-1a1 1 0 11-2 1m-3-39a1 1 0 112 0l-1 1-1-1m3 18a1 1 0 113 0l-1 1-2-1m4 39l1-1 1 1a1 1 0 11-2 0m0-21l1-2 1 2a1 1 0 11-2 0m4 32l1-1a1 1 0 11-1 1m-4-4a1 1 0 112 0 1 1 0 01-2 0m0-36l1-1a1 1 0 11-1 1m7 36l1-1a1 1 0 110 3l-1-2m-3-39a1 1 0 112 0 1 1 0 01-2 0m0-7l1-2 1 2a1 1 0 11-2 0m-4 25a1 1 0 112 0 1 1 0 01-2 0m0-51l1-1a1 1 0 11-1 1m4 18l1-1a1 1 0 11-1 1m0 22l1-1a1 1 0 11-1 1m-4 47a1 1 0 112 0 1 1 0 01-2 0m4-25l1-2 1 2a1 1 0 11-2 0m0-58l1-1a1 1 0 11-1 1m-4 11a1 1 0 112 0 1 1 0 01-2 0m4 75a1 1 0 112 0 1 1 0 01-2 0m-4 11l1-1 1 1a1 1 0 11-2 0m0-93l1-1 1 1a1 1 0 11-2 0m0 14l1-1a1 1 0 11-1 1m4 83a1 1 0 112 0 1 1 0 01-2 0m3-25l1-2 2 2-2 1-1-1m-3 3l1-1 1 1a1 1 0 11-2 0m3 25l1-1a1 1 0 110 3l-1-2m0-14l1-1 2 1-2 1-1-1m-3-83a1 1 0 112 0 1 1 0 01-2 0m3 90l1-1 2 1-2 1-1-1m-3-54a1 1 0 112 0 1 1 0 01-2 0m-2 68h-1l-1 1 1-2 1 1m-2-21l1-1a1 1 0 11-1 1m0-65a1 1 0 112 0 1 1 0 01-2 0m4 83l1-1a1 1 0 11-1 1m-4-32l1-2a1 1 0 11-1 2m7 7l1-1a1 1 0 110 2l-1-1m-3-32a1 1 0 112 0 1 1 0 01-2 0m-4 3l1-1a1 1 0 11-1 1m4 11a1 1 0 112 0 1 1 0 01-2 0m0 29l1-2a1 1 0 11-1 2m4 16l1 1h-2l1-1m6-6l1-1a1 1 0 11-1 1m-7-50l1-1 2 1-2 1-1-1m7 14l1-1a1 1 0 11-1 1m-7-21l1-1a1 1 0 110 2l-1-1m7 50a1 1 0 113 0l-2 1-1-1m-3-61a1 1 0 112 0 1 1 0 01-2 0m0-14a1 1 0 112 0l-1 1-1-1m0 64l1-1a1 1 0 11-1 1m0 7a1 1 0 112 0 1 1 0 01-2 0m-4-75l1-1 2 1-2 1-1-1m0 22l1-2 2 2-2 1-1-1m0-15l1-1a1 1 0 110 2l-1-1m7 15a1 1 0 113 0l-2 1-1-1m-3 3l1-1a1 1 0 11-1 1m-4-11l1-1 2 1-2 2-1-2m4 76a1 1 0 112 0 1 1 0 01-2 0m-4-104l1-2 2 2-2 1-1-1m7 86a1 1 0 113 0 1 1 0 01-3 0m-3-11a1 1 0 112 0l-1 1-1-1m0-50l1-1a1 1 0 11-1 1m0 36l1-1a1 1 0 11-1 1m-4-54l1-1a1 1 0 110 2l-1-1m4-4l1-1a1 1 0 11-1 1m0 65a1 1 0 112 0 1 1 0 01-2 0m0 29l1-2a1 1 0 11-1 2m3-25a1 1 0 113 0 1 1 0 01-3 0m-7-15l1-1 2 1-2 1-1-1m7-14l1-1a1 1 0 11-1 1m-3 3l1-1a1 1 0 11-1 1m3 11a1 1 0 113 0l-2 1-1-1m0 22l1-2a1 1 0 11-1 2m-3-69a1 1 0 112 1 1 1 0 01-2 0m0 43a1 1 0 112 0l-1 1-1-1m3-4a1 1 0 113 0 1 1 0 01-3 0m7 0l2-1a1 1 0 11-2 1m0-21l2-2a1 1 0 11-2 2m-3 46a1 1 0 112 0 1 1 0 01-2 0m0-21a1 1 0 112 0 1 1 0 01-2 0m4-40l1-1a1 1 0 11-1 1m0 22l1-2 1 2a1 1 0 11-2 0m0 57l1-1 1 1a1 1 0 11-2 0m0-29a1 1 0 112 0 1 1 0 01-2 0m-4 4a1 1 0 112 0 1 1 0 01-2 0m0-57a1 1 0 112 0 1 1 0 01-2 0m0 14l1-1 1 1a1 1 0 11-2 0m0 64a1 1 0 112 1 1 1 0 01-2 0m0-72a1 1 0 112 0 1 1 0 01-2 0m4 3a1 1 0 112 0 1 1 0 01-2 0m-4 11a1 1 0 112 0 1 1 0 01-2 0m0 50l1-1 1 1a1 1 0 11-2 0m4-10l1-2a1 1 0 11-1 2m0-15l1-1 1 1a1 1 0 11-2 0m-4 4l1-1 1 1a1 1 0 11-2 0m4-18a1 1 0 112 0 1 1 0 01-2 0m0 57a1 1 0 112 0 1 1 0 01-2 0m-4-3l1-1 1 1a1 1 0 11-2 0m4-18a1 1 0 112 0 1 1 0 01-2 0m-4-33l1-1 1 1-1 2-1-2m0-7l1-1 1 1a1 1 0 11-2 0m0 65a1 1 0 112 0 1 1 0 01-2 0m4-18l1-1a1 1 0 11-1 1m-8-79l2-1a1 1 0 11-2 1m0 14l2-1a1 1 0 11-2 1m0 8a1 1 0 113 0 1 1 0 01-3 0m0-15a1 1 0 113 0 1 1 0 01-3 0m11 25l1-1a1 1 0 110 2l-1-1m4 61l1-1a1 1 0 110 3l-1-2m-4-25l1-1 2 1-2 1-1-1m4-25l1-1 1 1-1 1-1-1m0 29l1-2a1 1 0 110 3l-1-1m0 7l1-1 1 1-1 1-1-1m0-29l1-1 1 1-1 1-1-1m0-36l1-1a1 1 0 110 2l-1-1m-4 11l1-1 2 1-2 1-1-1m0 36l1-1 2 1-2 1-1-1m0 29l1-2a1 1 0 110 3l-1-1m0-43l1-2 2 2-2 1-1-1m4-11l1-1a1 1 0 110 2l-1-1m-4 61l1-1 2 1-1 1h-1l-1-1m0-58a1 1 0 113 0 1 1 0 01-3 0m4-18l1-1 1 1-1 2-1-2m-4 61l1-1 2 1-2 2-1-2m0-64l1-1a1 1 0 110 2l-1-1m4 68l1-1 1 1-1 1-1-1m-4-32l1-1a1 1 0 110 2l-1-1m4 3l1-1a1 1 0 110 3l-1-2m-4-46l1-2 2 2-2 1-1-1m4 18l1-2 1 2-1 1-1-1m-4 46l1-1a1 1 0 110 2l-1-1m4-10l1-2 1 2-1 1-1-1m18 10l1-1a1 1 0 110 2l-1-1m3-25a1 1 0 113 0l-1 1-2-1m7 36l2-1 1 1a1 1 0 11-3 0m-3-11l1-1a1 1 0 11-1 1m-4-32a1 1 0 113 0 1 1 0 01-3 0m4 18a1 1 0 112 0 1 1 0 01-2 0m-4 4a1 1 0 113 0 1 1 0 01-3 0m-3 3l1-1 1 1-1 1-1-1m0-7l1-1 1 1-1 1-1-1m0 21l1-1 1 1-1 2-1-2m3-3a1 1 0 113 0 1 1 0 01-3 0m0 7a1 1 0 113 0l-1 1-2-1m7-7l2-1a1 1 0 11-2 1m-10-40a1 1 0 112 0 1 1 0 01-2 0m3 18l2-1a1 1 0 11-2 1m-3-10l1-2 1 2-1 1-1-1m0-15l1-1a1 1 0 110 2l-1-1m7 22l1-1a1 1 0 11-1 1m-7 36l1-2a1 1 0 110 3l-1-1m0-36l1-1a1 1 0 110 2l-1-1m7 14a1 1 0 112 0l-1 1-1-1m0 14a1 1 0 112 0 1 1 0 01-2 0m0-43l1-1 1 1a1 1 0 01-2 0m0 8a1 1 0 112 0l-1 1-1-1m0 43l1-2a1 1 0 11-1 2m3 3a1 1 0 112 1l-1-1m-8-21l2-2a1 1 0 11-2 2m0-36l2-1h1v1l-1 1-2-1m0 57l2-1a1 1 0 11-2 1m-10-68l1-1a1 1 0 11-2 1m4 4l1-2 1 2a1 1 0 11-2 0m0 43a1 1 0 112 0 1 1 0 01-2 0m0-22l1-1 1 1a1 1 0 11-2 0m0 15l1-2a1 1 0 11-1 2m0 14l1-1a1 1 0 11-1 1m0 7l1-1 1 1a1 1 0 11-2 0m0-29a1 1 0 112 0 1 1 0 01-2 0m0 36a1 1 0 112 0 1 1 0 01-2 0m0-57a1 1 0 112 0 1 1 0 01-2 0m0 7l1-1a1 1 0 11-1 1m-4 4l2-2 1 2a1 1 0 11-3 0m0 21l2-1 1 1a1 1 0 11-3 0m0-29a1 1 0 113 0 1 1 0 01-3 0m0 44l2-2a1 1 0 11-2 2m3 13h-2 2m-3-64a1 1 0 113 0 1 1 0 01-3 0m0 29l2-1a1 1 0 11-2 1m0 14a1 1 0 113 0 1 1 0 01-3 0m0 15a1 1 0 113 0 1 1 0 01-3 0m0-36a1 1 0 113 0 1 1 0 01-3 0m-3-32a1 1 0 112 0 1 1 0 01-2 0m0 7a1 1 0 112 0 1 1 0 11-2 0m0 7l1-1 1 1a1 1 0 11-2 0m-4-11a1 1 0 113 0 1 1 0 01-3 0m0-7l1-1a1 1 0 11-1 1m4 75l1-1 1 1a1 1 0 11-2 0m0-21l1-1 1 1a1 1 0 11-2 0m0 7a1 1 0 112 0 1 1 0 01-2 0m0-29a1 1 0 112 0 1 1 0 11-2 0m0 36a1 1 0 112 0 1 1 0 11-2 0m0-21a1 1 0 112 0 1 1 0 01-2 0m0-22a1 1 0 112 0 1 1 0 01-2 0m0 14l1-1 1 1-1 2-1-2m-4 25a1 1 0 113 1 1 1 0 01-3 0m0-29l1-1a1 1 0 11-1 1m0 43a1 1 0 113 0zm0-50a1 1 0 113 0l-2 1-1-1m0 21a1 1 0 113 0l-2 1-1-1m0-29l1-1a1 1 0 11-1 1m0 51l1-1a1 1 0 11-1 1m0-29a1 1 0 113 0 1 1 0 01-3 0m0 14l1-1a1 1 0 11-1 1m0-43l1-1a1 1 0 11-1 1m54 54a1 1 0 113 0l-2 1-1-1m4-11v-1l2 2a1 1 0 01-2-1m7 8v-1l2 1-1 1-1-1m-11-11l1-1 1 1-1 1-1-1m11 19v-1a1 1 0 012 0zm-4-5a1 1 0 113 0 1 1 0 01-3 0m-3-3a1 1 0 112 0 1 1 0 01-2 0m14 7v-1l1 1zm-18-11a1 1 0 113 0 1 1 0 01-3 0m7 0l1-1 1 1v1l-2-1m7 7l1-1v1h1v1l-2-1m-10 4l1-1a1 1 0 11-1 1m-7 0l1-1a1 1 0 110 2l-1-1m0-22v-1l2 2h-1l-1-1m0 15l1-2 1 2-1 1-1-1m0-8l1-1a1 1 0 110 3l-1-2m-4-10l1-1 1 1-1 1-1-1m1 27h1-1m-5-9a1 1 0 113 0 1 1 0 01-3 0m4-4l1-1a1 1 0 11-1 1m-4-4l2-1 1 1a1 1 0 11-3 0m0-14l1-1 2 1-1 1-2-1m0 7a1 1 0 113 0 1 1 0 01-3 0m4 4a1 1 0 112 0 1 1 0 01-2 0m-4 18l2-1 1 1a1 1 0 11-3 0m4-4l1-1 1 1a1 1 0 11-2 0m-5 7h-2a1 1 0 012 0m-6-25a1 1 0 113 0l-2 1-1-1m0-7a1 1 0 113 0 1 1 0 01-3 0m4 25a1 1 0 112 0l-1 1-1-1m0-29l1-1v1l1 1-1 1-1-2m0 22a1 1 0 112 0 1 1 0 01-2 0m0-14a1 1 0 112 0 1 1 0 01-2 0m-4 10l1-1a1 1 0 11-1 1m0 8a1 1 0 113 0 1 1 0 01-3 0m4-11l1-1a1 1 0 11-1 1m-4-18l1-1 2 1a1 1 0 01-3 0m0 36l1-1a1 1 0 11-1 1m-3-33l1-1a1 1 0 110 3l-1-2m0-7l1-1 1 1-1 1-1-1m0 15l1-2 1 2-1 1-1-1m0 7l1-1a1 1 0 110 2l-1-1m-4 11l1-2a1 1 0 11-1 2m0-15l1-1 1 1a1 1 0 11-2 0m0-14a1 1 0 112 0 1 1 0 01-2 0m0 36a1 1 0 112 0 1 1 0 01-2 0m4-4l1-1 1 1-1 1-1-1m0 8v-1l1-1 1 1v1h-1zm-4-33l1-1a1 1 0 11-1 1m0-14l1-2 1 2-1 1-1-1m0 28a1 1 0 112 0 1 1 0 01-2 0m4 4l1-1 1 1-1 1-1-1m-8-22a1 1 0 113 0 1 1 0 01-3 0m0-7l2-1 1 1a1 1 0 11-3 0m0-7l2-1 1 1-1 1-2-1m0 22l2-2a1 1 0 11-2 2m2 8a1 1 0 100-2 1 1 0 000 2m-34-249h1v1zm10 4a1 1 0 112 0 1 1 0 01-2 0m-2 4v1l-1-2 1 1m-3-4v1l-2-2h1l1 1m1-4l2 1a1 1 0 01-2 0v-1m11 11a1 1 0 112 0 1 1 0 01-2 0m-6 1l-1-1 1-1 1 1-1 1m4 4l-2-1a1 1 0 013 0l-1 1m2-12a1 1 0 112 0 1 1 0 01-2 0m-4 4a1 1 0 113 0 1 1 0 01-3 0m0-7l2 1h-1l-1-1m11 25a1 1 0 112 0 1 1 0 01-2 0m0-7a1 1 0 112 0 1 1 0 01-2 0m-6 1l-1-2 1-1 1 2-1 1m4 3h-1l-1-1a1 1 0 112 1m2-12a1 1 0 112 0 1 1 0 01-2 0m-4 4a1 1 0 113 0 1 1 0 01-3 0m4-11a1 1 0 112 0 1 1 0 01-2 0m-4 4a1 1 0 113 0 1 1 0 01-3 0m11 25a1 1 0 113 0 1 1 0 01-3 0m0-7a1 1 0 113 0 1 1 0 01-3 0m-3 3a1 1 0 112 0 1 1 0 01-2 0m3-10a1 1 0 113 0 1 1 0 01-3 0m-3 3a1 1 0 112 0 1 1 0 01-2 0m3-11a1 1 0 113 0 1 1 0 01-3 0m-3 4a1 1 0 112 0 1 1 0 01-2 0m3-11v-1l2 1h1a1 1 0 01-3 0m-3 4a1 1 0 112 0 1 1 0 01-2 0m10 32a1 1 0 113 0 1 1 0 01-3 0m0-7a1 1 0 113 0 1 1 0 01-3 0m-3 4a1 1 0 112 0 1 1 0 01-2 0m3-11a1 1 0 113 0 1 1 0 01-3 0m-3 3a1 1 0 112 0 1 1 0 01-2 0m3-10a1 1 0 113 0 1 1 0 01-3 0m-3 3a1 1 0 112 0 1 1 0 01-2 0m3-11a1 1 0 113 0 1 1 0 01-3 0m-3 4a1 1 0 112 0 1 1 0 01-2 0m3-11h3l-1 1-2-1m-3 4a1 1 0 112 0 1 1 0 01-2 0m11 39a1 1 0 112 0 1 1 0 01-2 0m0-7a1 1 0 112 0 1 1 0 01-2 0m-4 4a1 1 0 112 0 1 1 0 01-2 0m4-11a1 1 0 112 0 1 1 0 01-2 0m-4 4a1 1 0 112 0 1 1 0 01-2 0m4-11a1 1 0 112 0 1 1 0 01-2 0m-4 3a1 1 0 112 0 1 1 0 01-2 0m4-10a1 1 0 112 0 1 1 0 01-2 0m-4 3a1 1 0 112 0 1 1 0 01-2 0m4-11a1 1 0 112 0 1 1 0 01-2 0m-4 4a1 1 0 112 0 1 1 0 01-2 0m4-10h1-1m-4 3a1 1 0 112 0 1 1 0 01-2 0m11 46a1 1 0 112 0 1 1 0 01-2 0m0-7a1 1 0 112 0 1 1 0 01-2 0m-4 4a1 1 0 112 0 1 1 0 01-2 0m4-11a1 1 0 112 0 1 1 0 01-2 0m-4 4a1 1 0 112 0 1 1 0 01-2 0m4-11a1 1 0 112 0 1 1 0 01-2 0m-4 4a1 1 0 112 0 1 1 0 01-2 0m4-11a1 1 0 112 0 1 1 0 01-2 0m-4 3a1 1 0 112 0 1 1 0 01-2 0m4-10a1 1 0 112 0 1 1 0 01-2 0m-4 3a1 1 0 112 0 1 1 0 01-2 0m4-11a1 1 0 112 0 1 1 0 01-2 0m-4 4a1 1 0 112 0 1 1 0 01-2 0m0-7a1 1 0 112 0 1 1 0 01-2 0m11 54a1 1 0 112 0 1 1 0 01-2 0m-2 3v-1 1m2-11a1 1 0 112 0 1 1 0 01-2 0m-4 4a1 1 0 113 0 1 1 0 01-3 0m4-11a1 1 0 112 0 1 1 0 01-2 0m-4 4a1 1 0 113 0 1 1 0 01-3 0m4-11a1 1 0 112 0 1 1 0 01-2 0m-4 4a1 1 0 113 0 1 1 0 01-3 0m4-11a1 1 0 112 0 1 1 0 01-2 0m-4 4a1 1 0 113 0 1 1 0 01-3 0m4-11a1 1 0 112 0 1 1 0 01-2 0m-4 3a1 1 0 113 0 1 1 0 01-3 0m4-10a1 1 0 112 0 1 1 0 01-2 0m-4 3a1 1 0 113 0 1 1 0 01-3 0m4-11a1 1 0 112 0 1 1 0 01-2 0m-4 4a1 1 0 113 0 1 1 0 01-3 0m0-7a1 1 0 113 0 1 1 0 01-3 0m11 61a1 1 0 113 0 1 1 0 01-3 0m-1 3v1l-1-2 1 1m1-10a1 1 0 113 0 1 1 0 01-3 0m-5 7l-1-1 1 1m2-4a1 1 0 112 0 1 1 0 01-2 0m3-11a1 1 0 113 0 1 1 0 01-3 0m-3 4a1 1 0 112 0 1 1 0 01-2 0m3-11a1 1 0 113 0 1 1 0 01-3 0m-3 4a1 1 0 112 0 1 1 0 01-2 0m3-11a1 1 0 113 0 1 1 0 01-3 0m-3 4a1 1 0 112 0 1 1 0 01-2 0m3-11a1 1 0 113 0 1 1 0 01-3 0m-3 4a1 1 0 112 0 1 1 0 01-2 0m3-11a1 1 0 113 0 1 1 0 01-3 0m-3 3a1 1 0 112 0 1 1 0 01-2 0m3-10a1 1 0 113 0 1 1 0 01-3 0m-3 3a1 1 0 112 0 1 1 0 01-2 0m3-11a1 1 0 113 0 1 1 0 01-3 0m-3 4a1 1 0 112 0 1 1 0 01-2 0m0-7v-1h2v1a1 1 0 01-2 0m10 68a1 1 0 113 0 1 1 0 01-3 0m-1 4l-2-1 1-1 1 2m1-11a1 1 0 113 0 1 1 0 01-3 0m-4 7l-1 1-1-2 2 1m1-4a1 1 0 112 0 1 1 0 01-2 0m3-10a1 1 0 113 0 1 1 0 01-3 0m-3 3a1 1 0 112 0 1 1 0 01-2 0m3-11a1 1 0 113 0 1 1 0 01-3 0m-3 4a1 1 0 112 0 1 1 0 01-2 0m3-11a1 1 0 113 0 1 1 0 01-3 0m-3 4a1 1 0 112 0 1 1 0 01-2 0m3-11a1 1 0 113 0 1 1 0 01-3 0m-3 4a1 1 0 112 0 1 1 0 01-2 0m3-11a1 1 0 113 0 1 1 0 01-3 0m-3 4a1 1 0 112 0 1 1 0 01-2 0m3-11a1 1 0 113 0 1 1 0 01-3 0m-3 3a1 1 0 112 0 1 1 0 01-2 0m3-10a1 1 0 113 0 1 1 0 01-3 0m-3 3a1 1 0 112 0 1 1 0 01-2 0m3-11a1 1 0 113 0 1 1 0 01-3 0m-3 4a1 1 0 112 0 1 1 0 01-2 0m0-7h2l-1 1-1-1m11 75a1 1 0 112 0 1 1 0 01-2 0m-6 1l-1-2a1 1 0 012 1l-1 1m4 4l-2-2a1 1 0 112 2m2-12a1 1 0 112 0 1 1 0 01-2 0m-4 4a1 1 0 112 0 1 1 0 01-2 0m4-11a1 1 0 112 0 1 1 0 01-2 0m-4 3a1 1 0 112 0 1 1 0 01-2 0m4-10a1 1 0 112 0 1 1 0 01-2 0m-4 3a1 1 0 112 0 1 1 0 01-2 0m4-11a1 1 0 112 0 1 1 0 01-2 0m-4 4a1 1 0 112 0 1 1 0 01-2 0m4-11a1 1 0 112 0 1 1 0 01-2 0m-4 4a1 1 0 112 0 1 1 0 01-2 0m4-11a1 1 0 112 0 1 1 0 01-2 0m-4 4a1 1 0 112 0 1 1 0 01-2 0m4-11a1 1 0 112 0 1 1 0 01-2 0m-4 4a1 1 0 112 0 1 1 0 01-2 0m4-11a1 1 0 112 0 1 1 0 01-2 0m-4 3a1 1 0 112 0 1 1 0 01-2 0m4-10a1 1 0 112 0 1 1 0 01-2 0m-4 3a1 1 0 112 0 1 1 0 01-2 0m4-11a1 1 0 112 0 1 1 0 01-2 0m-4 4a1 1 0 112 0 1 1 0 01-2 0m11 83a1 1 0 112 0 1 1 0 01-2 0m0-8a1 1 0 112 0 1 1 0 01-2 0m-6 2l-1-2 1-1 1 1-1 2m3 3l-1-1a1 1 0 111 1m3-12a1 1 0 112 0 1 1 0 01-2 0m-4 4a1 1 0 112 0 1 1 0 01-2 0m4-11a1 1 0 112 0 1 1 0 01-2 0m-4 4a1 1 0 112 0 1 1 0 01-2 0m4-11a1 1 0 112 0 1 1 0 01-2 0m-4 4a1 1 0 112 0 1 1 0 01-2 0m4-11a1 1 0 112 0 1 1 0 01-2 0m-4 3a1 1 0 112 0 1 1 0 01-2 0m4-10a1 1 0 112 0 1 1 0 01-2 0m-4 3a1 1 0 112 0 1 1 0 01-2 0m4-11a1 1 0 112 0 1 1 0 01-2 0m-4 4a1 1 0 112 0 1 1 0 01-2 0m4-11a1 1 0 112 0 1 1 0 01-2 0m-4 4a1 1 0 112 0 1 1 0 01-2 0m4-11a1 1 0 112 0 1 1 0 01-2 0m-4 4a1 1 0 112 0 1 1 0 01-2 0m4-11a1 1 0 112 0 1 1 0 01-2 0m-4 3a1 1 0 112 0 1 1 0 01-2 0m4-10a1 1 0 112 0 1 1 0 01-2 0m-4 3a1 1 0 112 0 1 1 0 01-2 0m0-7a1 1 0 112 0 1 1 0 01-2 0m5-5a1 1 0 010 3 1 1 0 010-3m6 95a1 1 0 112 0 1 1 0 01-2 0m0-7a1 1 0 112 0 1 1 0 01-2 0m-4 3a1 1 0 112 0 1 1 0 01-2 0m4-10a1 1 0 112 0 1 1 0 01-2 0m-4 3a1 1 0 112 0 1 1 0 01-2 0m4-11a1 1 0 112 0 1 1 0 01-2 0m-4 4a1 1 0 112 0 1 1 0 01-2 0m4-11a1 1 0 112 0 1 1 0 01-2 0m-4 4a1 1 0 112 0 1 1 0 01-2 0m4-11a1 1 0 112 0 1 1 0 01-2 0m-4 4a1 1 0 112 0 1 1 0 01-2 0m4-11a1 1 0 112 0 1 1 0 01-2 0m-4 3a1 1 0 112 0 1 1 0 01-2 0m4-10a1 1 0 112 0 1 1 0 01-2 0m-4 3a1 1 0 112 0 1 1 0 01-2 0m4-11a1 1 0 112 0 1 1 0 01-2 0m-4 4a1 1 0 112 0 1 1 0 01-2 0m4-11a1 1 0 112 0 1 1 0 01-2 0m-4 4a1 1 0 112 0 1 1 0 01-2 0m4-11a1 1 0 112 0 1 1 0 01-2 0m-4 4a1 1 0 112 0 1 1 0 01-2 0m4-11a1 1 0 112 0 1 1 0 01-2 0m-4 3a1 1 0 112 0 1 1 0 01-2 0m4-10a1 1 0 112 0 1 1 0 01-2 0m-4 3a1 1 0 112 0 1 1 0 01-2 0m4-11h2a1 1 0 01-2 0m-4 4a1 1 0 112 0 1 1 0 01-2 0m11 97a1 1 0 112 0 1 1 0 01-2 0m0-7a1 1 0 112 0 1 1 0 01-2 0m-4 3a1 1 0 113 0 1 1 0 01-3 0m4-10a1 1 0 112 0 1 1 0 01-2 0m-4 3a1 1 0 113 0 1 1 0 01-3 0m4-10a1 1 0 112 0 1 1 0 01-2 0m-4 3a1 1 0 113 0 1 1 0 01-3 0m4-11a1 1 0 112 0 1 1 0 01-2 0m-4 4a1 1 0 113 0 1 1 0 01-3 0m4-11a1 1 0 112 0 1 1 0 01-2 0m-4 4a1 1 0 113 0 1 1 0 01-3 0m4-11a1 1 0 112 0 1 1 0 01-2 0m-4 3a1 1 0 113 0 1 1 0 01-3 0m4-10a1 1 0 112 0 1 1 0 01-2 0m-4 3a1 1 0 113 0 1 1 0 01-3 0m4-11a1 1 0 112 0 1 1 0 01-2 0m-4 4a1 1 0 113 0 1 1 0 01-3 0m4-11a1 1 0 112 0 1 1 0 01-2 0m-4 4a1 1 0 113 0 1 1 0 01-3 0m4-11a1 1 0 112 0 1 1 0 01-2 0m-4 4a1 1 0 113 0 1 1 0 01-3 0m4-11a1 1 0 112 0 1 1 0 01-2 0m-4 4a1 1 0 113 0 1 1 0 01-3 0m4-11a1 1 0 112 0 1 1 0 01-2 0m-4 3a1 1 0 113 0 1 1 0 01-3 0m4-10a1 1 0 112 0 1 1 0 01-2 0m-4 3a1 1 0 113 0 1 1 0 01-3 0m4-10h2l-1 1-1-1m-4 3a1 1 0 113 0 1 1 0 01-3 0m11 104a1 1 0 113 0 1 1 0 01-3 0m0-7a1 1 0 113 0 1 1 0 01-3 0m-3 4a1 1 0 112 0 1 1 0 01-2 0m3-11a1 1 0 113 0 1 1 0 01-3 0m-3 3a1 1 0 112 0 1 1 0 01-2 0m3-10a1 1 0 113 0 1 1 0 01-3 0m-3 3a1 1 0 112 0 1 1 0 01-2 0m3-11a1 1 0 113 1 1 1 0 01-3 0m-3 3a1 1 0 112 0 1 1 0 01-2 0m3-11a1 1 0 113 0 1 1 0 01-3 0m-3 4a1 1 0 112 0 1 1 0 01-2 0m3-11a1 1 0 113 0 1 1 0 01-3 0m-3 4a1 1 0 112 0 1 1 0 01-2 0m3-11a1 1 0 113 0 1 1 0 01-3 0m-3 3a1 1 0 112 0 1 1 0 01-2 0m3-10a1 1 0 113 0 1 1 0 01-3 0m-3 3a1 1 0 112 0 1 1 0 01-2 0m3-11a1 1 0 113 0 1 1 0 01-3 0m-3 4a1 1 0 112 0 1 1 0 01-2 0m3-11a1 1 0 113 0 1 1 0 01-3 0m-3 4a1 1 0 112 0 1 1 0 01-2 0m3-11a1 1 0 113 0 1 1 0 01-3 0m-3 4a1 1 0 112 0 1 1 0 01-2 0m3-11a1 1 0 113 0 1 1 0 01-3 0m-3 4a1 1 0 112 0 1 1 0 01-2 0m3-11a1 1 0 113 0 1 1 0 01-3 0m-3 3a1 1 0 112 0 1 1 0 01-2 0m3-10a1 1 0 113 0 1 1 0 01-3 0m-3 3a1 1 0 112 0 1 1 0 01-2 0m0-7a1 1 0 112 0 1 1 0 01-2 0m10 111a1 1 0 113 0 1 1 0 01-3 0m0-7a1 1 0 113 0 1 1 0 01-3 0m-3 4a1 1 0 112 0 1 1 0 01-2 0m3-11a1 1 0 113 0 1 1 0 01-3 0m-3 4a1 1 0 112 0 1 1 0 01-2 0m3-11a1 1 0 113 0 1 1 0 01-3 0m-3 3a1 1 0 112 0 1 1 0 01-2 0m3-10a1 1 0 113 0 1 1 0 01-3 0m-3 3a1 1 0 112 0 1 1 0 01-2 0m3-11a1 1 0 113 0 1 1 0 01-3 0m-3 4a1 1 0 112 0 1 1 0 01-2 0m3-11a1 1 0 113 0 1 1 0 01-3 0m-3 4a1 1 0 112 0 1 1 0 01-2 0m3-11a1 1 0 113 0 1 1 0 01-3 0m-3 4a1 1 0 112 0 1 1 0 01-2 0m3-11a1 1 0 113 0 1 1 0 01-3 0m-3 3a1 1 0 112 0 1 1 0 01-2 0m3-10a1 1 0 113 0 1 1 0 01-3 0m-3 3a1 1 0 112 0 1 1 0 01-2 0m3-11a1 1 0 113 0 1 1 0 01-3 0m-3 4a1 1 0 112 0 1 1 0 01-2 0m3-11a1 1 0 113 0 1 1 0 01-3 0m-3 4a1 1 0 112 0 1 1 0 01-2 0m3-11a1 1 0 113 0 1 1 0 01-3 0m-3 4a1 1 0 112 0 1 1 0 01-2 0m3-11a1 1 0 113 0 1 1 0 01-3 0m-3 4a1 1 0 112 0 1 1 0 01-2 0m3-11a1 1 0 113 0 1 1 0 01-3 0m-3 3a1 1 0 112 0 1 1 0 01-2 0m3-10a1 1 0 113 0 1 1 0 01-3 0m-3 3a1 1 0 112 0 1 1 0 01-2 0m0-7a1 1 0 112 0 1 1 0 01-2 0m11 119a1 1 0 112 0 1 1 0 01-2 0m-2 3v-1 1m2-11a1 1 0 112 0 1 1 0 01-2 0m-4 4a1 1 0 112 0 1 1 0 01-2 0m4-11a1 1 0 112 0 1 1 0 01-2 0m-4 4a1 1 0 112 0 1 1 0 01-2 0m4-11a1 1 0 112 0 1 1 0 01-2 0m-4 4a1 1 0 112 0 1 1 0 01-2 0m4-11a1 1 0 112 0 1 1 0 01-2 0m-4 3a1 1 0 112 0 1 1 0 01-2 0m4-10a1 1 0 112 0 1 1 0 01-2 0m-4 3a1 1 0 112 0 1 1 0 01-2 0m4-10a1 1 0 112 0 1 1 0 01-2 0m-4 3a1 1 0 112 0 1 1 0 01-2 0m4-11a1 1 0 112 0 1 1 0 01-2 0m-4 4a1 1 0 112 0 1 1 0 01-2 0m4-11a1 1 0 112 0 1 1 0 01-2 0m-4 4a1 1 0 112 0 1 1 0 01-2 0m4-11a1 1 0 112 0 1 1 0 01-2 0m-4 3a1 1 0 112 0 1 1 0 01-2 0m4-10a1 1 0 112 0 1 1 0 01-2 0m-4 3a1 1 0 112 0 1 1 0 01-2 0m4-11a1 1 0 112 0 1 1 0 01-2 0m-4 4a1 1 0 112 0 1 1 0 01-2 0m4-11a1 1 0 112 0 1 1 0 01-2 0m-4 4a1 1 0 112 0 1 1 0 01-2 0m4-11a1 1 0 112 0 1 1 0 01-2 0m-4 4a1 1 0 112 0 1 1 0 01-2 0m4-11a1 1 0 112 0 1 1 0 01-2 0m-4 3a1 1 0 112 0 1 1 0 01-2 0m4-10a1 1 0 112 0 1 1 0 01-2 0m-4 3a1 1 0 112 0 1 1 0 01-2 0m4-11a1 1 0 112 0 1 1 0 01-2 0m-4 4a1 1 0 112 0 1 1 0 01-2 0m1-8h1v1a1 1 0 01-2 0l1-1m10 127a1 1 0 112 0 1 1 0 01-2 0m-1 3v1l-2-2 2 1m1-11a1 1 0 112 0 1 1 0 01-2 0m-5 8l-1-2 1 2m1-4a1 1 0 113 0 1 1 0 01-3 0m4-11a1 1 0 112 0 1 1 0 01-2 0m-4 4a1 1 0 113 0 1 1 0 01-3 0m4-11a1 1 0 112 0 1 1 0 01-2 0m-4 4a1 1 0 113 0 1 1 0 01-3 0m4-11a1 1 0 112 0 1 1 0 01-2 0m-4 3a1 1 0 113 1 1 1 0 01-3 0m4-11a1 1 0 112 0 1 1 0 01-2 0m-4 3a1 1 0 113 0 1 1 0 01-3 0m4-10a1 1 0 112 0 1 1 0 01-2 0m-4 3a1 1 0 113 0 1 1 0 01-3 0m4-11a1 1 0 112 0 1 1 0 01-2 0m-4 4a1 1 0 113 0 1 1 0 01-3 0m4-11a1 1 0 112 0 1 1 0 01-2 0m-4 4a1 1 0 113 0 1 1 0 01-3 0m4-11a1 1 0 112 0 1 1 0 01-2 0m-4 4a1 1 0 113 0 1 1 0 01-3 0m4-11a1 1 0 112 0 1 1 0 01-2 0m-4 3a1 1 0 113 0 1 1 0 01-3 0m4-10a1 1 0 112 0 1 1 0 01-2 0m-4 3a1 1 0 113 0 1 1 0 01-3 0m4-11a1 1 0 112 0 1 1 0 01-2 0m-4 4a1 1 0 113 0 1 1 0 01-3 0m4-11a1 1 0 112 0 1 1 0 01-2 0m-4 4a1 1 0 113 0 1 1 0 01-3 0m4-11a1 1 0 112 0 1 1 0 01-2 0m-4 4a1 1 0 113 0 1 1 0 01-3 0m4-11a1 1 0 112 0 1 1 0 01-2 0m-4 3a1 1 0 113 0 1 1 0 01-3 0m4-10a1 1 0 112 0 1 1 0 01-2 0m-4 3a1 1 0 113 0 1 1 0 01-3 0m4-11a1 1 0 112 0 1 1 0 01-2 0m-4 4a1 1 0 113 0 1 1 0 01-3 0m0-7h3a1 1 0 01-3 0m11 133a1 1 0 112 0 1 1 0 01-2 0m-2 4l-1-2h1a1 1 0 010 2m2-11a1 1 0 112 0 1 1 0 01-2 0m-5 7l-2-1h1l1 1m1-4a1 1 0 113 0 1 1 0 01-3 0m4-11a1 1 0 112 0 1 1 0 01-2 0m-4 4a1 1 0 113 0 1 1 0 01-3 0m4-11a1 1 0 112 0 1 1 0 01-2 0m-4 4a1 1 0 113 0 1 1 0 01-3 0m4-11a1 1 0 112 0 1 1 0 01-2 0m-4 4a1 1 0 113 0 1 1 0 01-3 0m4-11a1 1 0 112 0 1 1 0 01-2 0m-4 3a1 1 0 113 0 1 1 0 01-3 0m4-10a1 1 0 112 0 1 1 0 01-2 0m-4 3a1 1 0 113 0 1 1 0 01-3 0m4-11a1 1 0 112 0 1 1 0 01-2 0m-4 4a1 1 0 113 0 1 1 0 01-3 0m4-11a1 1 0 112 0 1 1 0 01-2 0m-4 4a1 1 0 113 0 1 1 0 01-3 0m4-11a1 1 0 112 0 1 1 0 01-2 0m-4 4a1 1 0 113 0 1 1 0 01-3 0m4-11a1 1 0 112 0 1 1 0 01-2 0m-4 4a1 1 0 113 0 1 1 0 01-3 0m4-11a1 1 0 112 0 1 1 0 01-2 0m-4 3a1 1 0 113 0 1 1 0 01-3 0m4-10a1 1 0 112 0 1 1 0 01-2 0m-4 3a1 1 0 113 0 1 1 0 01-3 0m4-11a1 1 0 112 0 1 1 0 01-2 0m-4 4a1 1 0 113 0 1 1 0 01-3 0m4-11a1 1 0 112 0 1 1 0 01-2 0m-4 4a1 1 0 113 0 1 1 0 01-3 0m4-11a1 1 0 112 0 1 1 0 01-2 0m-4 4a1 1 0 113 0 1 1 0 01-3 0m4-11a1 1 0 112 0 1 1 0 01-2 0m-4 3a1 1 0 113 0 1 1 0 01-3 0m4-10a1 1 0 112 0 1 1 0 01-2 0m-4 3a1 1 0 113 0 1 1 0 01-3 0m4-11a1 1 0 112 0 1 1 0 01-2 0m-4 4a1 1 0 113 0 1 1 0 01-3 0m0-7l3 1h-1l-1-1m10 140a1 1 0 113 0 1 1 0 01-3 0m-5 1l-2-2h1l1 1v1m3 4l-1-2a1 1 0 012 1l-1 1m2-12a1 1 0 113 0 1 1 0 01-3 0m-3 3a1 1 0 112 0 1 1 0 01-3 0m4-10a1 1 0 113 0 1 1 0 01-3 0m-3 3a1 1 0 112 0 1 1 0 01-3 0m4-11a1 1 0 113 0 1 1 0 01-3 0m-3 4a1 1 0 112 0 1 1 0 01-3 0m4-11a1 1 0 113 0 1 1 0 01-3 0m-3 4a1 1 0 112 0 1 1 0 01-3 0m4-11a1 1 0 113 0 1 1 0 01-3 0m-3 4a1 1 0 112 0 1 1 0 01-3 0m4-11a1 1 0 113 0 1 1 0 01-3 0m-3 3a1 1 0 112 0 1 1 0 01-3 0m4-10a1 1 0 113 0 1 1 0 01-3 0m-3 3a1 1 0 112 0 1 1 0 01-3 0m4-11a1 1 0 113 0 1 1 0 01-3 0m-3 4a1 1 0 112 0 1 1 0 01-3 0m4-11a1 1 0 113 0 1 1 0 01-3 0m-3 4a1 1 0 112 0 1 1 0 01-3 0m4-11a1 1 0 113 0 1 1 0 01-3 0m-3 4a1 1 0 112 0 1 1 0 01-3 0m4-11a1 1 0 113 0 1 1 0 01-3 0m-3 4a1 1 0 112 0 1 1 0 01-3 0m4-11a1 1 0 113 0 1 1 0 01-3 0m-3 3a1 1 0 112 0 1 1 0 01-3 0m4-10a1 1 0 113 0 1 1 0 01-3 0m-3 3a1 1 0 112 0 1 1 0 01-3 0m4-11a1 1 0 113 0 1 1 0 01-3 0m-3 4a1 1 0 112 0 1 1 0 01-3 0m4-11a1 1 0 113 0 1 1 0 01-3 0m-3 4a1 1 0 112 0 1 1 0 01-3 0m4-11a1 1 0 113 0 1 1 0 01-3 0m-3 4a1 1 0 112 0 1 1 0 01-3 0m4-11a1 1 0 113 0 1 1 0 01-3 0m-3 3a1 1 0 112 0 1 1 0 01-3 0m4-10a1 1 0 113 0 1 1 0 01-3 0m-3 3a1 1 0 112 0 1 1 0 01-3 0m4-11a1 1 0 113 0 1 1 0 01-3 0m-3 4a1 1 0 112 0 1 1 0 01-3 0m11 147a1 1 0 113 0 1 1 0 01-3 0m0-7a1 1 0 113 0 1 1 0 01-3 0m-6 1l-1-1a1 1 0 012 0c1 1 0 1-1 1m4 4h-1v-1a1 1 0 111 1m2-12a1 1 0 113 0 1 1 0 01-3 0m-3 4a1 1 0 112 0 1 1 0 01-2 0m3-11a1 1 0 113 0 1 1 0 01-3 0m-3 3a1 1 0 112 0 1 1 0 01-2 0m3-10a1 1 0 113 0 1 1 0 01-3 0m-3 3a1 1 0 112 0 1 1 0 01-2 0m3-11a1 1 0 113 0 1 1 0 01-3 0m-3 4a1 1 0 112 0 1 1 0 01-2 0m3-11a1 1 0 113 0 1 1 0 01-3 0m-3 4a1 1 0 112 0 1 1 0 01-2 0m3-11a1 1 0 113 0 1 1 0 01-3 0m-3 4a1 1 0 112 0 1 1 0 01-2 0m3-11a1 1 0 113 0 1 1 0 01-3 0m-3 3a1 1 0 112 0 1 1 0 01-2 0m3-10a1 1 0 113 0 1 1 0 01-3 0m-3 3a1 1 0 112 0 1 1 0 01-2 0m3-11a1 1 0 113 0 1 1 0 01-3 0m-3 4a1 1 0 112 0 1 1 0 01-2 0m3-11a1 1 0 113 0 1 1 0 01-3 0m-3 4a1 1 0 112 0 1 1 0 01-2 0m3-11a1 1 0 113 0 1 1 0 01-3 0m-3 4a1 1 0 112 0 1 1 0 01-2 0m3-11a1 1 0 113 0 1 1 0 01-3 0m-3 4a1 1 0 112 0 1 1 0 01-2 0m3-11a1 1 0 113 0 1 1 0 01-3 0m-3 3a1 1 0 112 0 1 1 0 01-2 0m3-10a1 1 0 113 0 1 1 0 01-3 0m-3 3a1 1 0 112 0 1 1 0 01-2 0m3-11a1 1 0 113 0 1 1 0 01-3 0m-3 4a1 1 0 112 0 1 1 0 01-2 0m3-11a1 1 0 113 0 1 1 0 01-3 0m-3 4a1 1 0 112 0 1 1 0 01-2 0m3-11a1 1 0 113 0 1 1 0 01-3 0m-3 4a1 1 0 112 0 1 1 0 01-2 0m3-11a1 1 0 113 0 1 1 0 01-3 0m-3 3a1 1 0 112 0 1 1 0 01-2 0m3-10a1 1 0 113 0 1 1 0 01-3 0m-3 3a1 1 0 112 0 1 1 0 01-2 0m0-7a1 1 0 112 0 1 1 0 01-2 0m4-4h2a1 1 0 11-3 0h1m6 159a1 1 0 113 0 1 1 0 01-3 0m1-8a1 1 0 112 0 1 1 0 01-3 0m-3 4a1 1 0 112 0 1 1 0 01-2 0m3-11a1 1 0 113 0 1 1 0 01-3 0m-3 4a1 1 0 112 0 1 1 0 01-2 0m3-11a1 1 0 113 0 1 1 0 01-3 0m-3 4a1 1 0 112 0 1 1 0 01-2 0m3-11a1 1 0 113 0 1 1 0 01-3 0m-3 3a1 1 0 112 0 1 1 0 01-2 0m3-10a1 1 0 113 0 1 1 0 01-3 0m-3 3a1 1 0 112 0 1 1 0 01-2 0m3-11a1 1 0 113 0 1 1 0 01-3 0m-3 4a1 1 0 112 0 1 1 0 01-2 0m3-11a1 1 0 113 0 1 1 0 01-3 0m-3 4a1 1 0 112 0 1 1 0 01-2 0m3-11a1 1 0 113 0 1 1 0 01-3 0m-3 4a1 1 0 112 0 1 1 0 01-2 0m3-11a1 1 0 113 0 1 1 0 01-3 0m-3 3a1 1 0 112 1 1 1 0 01-2 0m3-11a1 1 0 113 0 1 1 0 01-3 0m-3 3a1 1 0 112 0 1 1 0 01-2 0m3-10a1 1 0 113 0 1 1 0 01-3 0m-3 3a1 1 0 112 0 1 1 0 01-2 0m3-11a1 1 0 113 0 1 1 0 01-3 0m-3 4a1 1 0 112 0 1 1 0 01-2 0m3-11a1 1 0 113 0 1 1 0 01-3 0m-3 4a1 1 0 112 0 1 1 0 01-2 0m3-11a1 1 0 113 0 1 1 0 01-3 0m-3 4a1 1 0 112 0 1 1 0 01-2 0m3-11a1 1 0 113 0 1 1 0 01-3 0m-3 3a1 1 0 112 0 1 1 0 01-2 0m3-10a1 1 0 113 0 1 1 0 01-3 0m-3 3a1 1 0 112 0 1 1 0 01-2 0m3-11a1 1 0 113 0 1 1 0 01-3 0m-3 4a1 1 0 112 0 1 1 0 01-2 0m3-11a1 1 0 113 0 1 1 0 01-3 0m-3 4a1 1 0 112 0 1 1 0 01-2 0m3-11a1 1 0 113 0 1 1 0 01-3 0m-3 4a1 1 0 112 0 1 1 0 01-2 0m3-11a1 1 0 113 0 1 1 0 01-3 0m-3 3a1 1 0 112 0 1 1 0 01-2 0m3-10a1 1 0 113 0 1 1 0 01-3 0m-3 3a1 1 0 112 0 1 1 0 01-2 0m3-11l3 1a1 1 0 01-3-1m-3 4a1 1 0 112 0 1 1 0 01-2 0m11 162a1 1 0 112 0 1 1 0 01-2 0m0-7a1 1 0 112 0 1 1 0 01-2 0m-4 3a1 1 0 112 0 1 1 0 01-2 0m4-11a1 1 0 112 0 1 1 0 01-2 0m-4 4a1 1 0 112 0 1 1 0 01-2 0m4-11a1 1 0 112 0 1 1 0 01-2 0m-4 4a1 1 0 112 0 1 1 0 01-2 0m4-11a1 1 0 112 0 1 1 0 01-2 0m-4 4a1 1 0 112 0 1 1 0 01-2 0m4-11a1 1 0 112 0 1 1 0 01-2 0m-4 3a1 1 0 112 0 1 1 0 01-2 0m4-10a1 1 0 112 0 1 1 0 01-2 0m-4 3a1 1 0 112 0 1 1 0 01-2 0m4-10a1 1 0 112 0 1 1 0 01-2 0m-4 3a1 1 0 112 0 1 1 0 01-2 0m4-11a1 1 0 112 0 1 1 0 01-2 0m-4 4a1 1 0 112 0 1 1 0 01-2 0m4-11a1 1 0 112 0 1 1 0 01-2 0m-4 4a1 1 0 112 0 1 1 0 01-2 0m4-11a1 1 0 112 0 1 1 0 01-2 0m-4 4a1 1 0 112 0 1 1 0 01-2 0m4-11a1 1 0 112 0 1 1 0 01-2 0m-4 3a1 1 0 112 0 1 1 0 01-2 0m4-10a1 1 0 112 0 1 1 0 01-2 0m-4 3a1 1 0 112 0 1 1 0 01-2 0m4-10a1 1 0 112 0 1 1 0 01-2 0m-4 3a1 1 0 112 0 1 1 0 01-2 0m4-11a1 1 0 112 0 1 1 0 01-2 0m-4 4a1 1 0 112 0 1 1 0 01-2 0m4-11a1 1 0 112 0 1 1 0 01-2 0m-4 4a1 1 0 112 0 1 1 0 01-2 0m4-11a1 1 0 112 0 1 1 0 01-2 0m-4 3a1 1 0 112 0 1 1 0 01-2 0m4-10a1 1 0 112 0 1 1 0 01-2 0m-4 3a1 1 0 112 0 1 1 0 01-2 0m4-11a1 1 0 112 0 1 1 0 01-2 0m-4 4a1 1 0 112 0 1 1 0 01-2 0m4-11a1 1 0 112 0 1 1 0 01-2 0m-4 4a1 1 0 112 0 1 1 0 01-2 0m4-11a1 1 0 112 0 1 1 0 01-2 0m-4 4a1 1 0 112 0 1 1 0 01-2 0m4-11a1 1 0 112 0 1 1 0 01-2 0m-4 3a1 1 0 112 0 1 1 0 01-2 0m4-10a1 1 0 112 0 1 1 0 01-2 0m-4 3a1 1 0 112 0 1 1 0 01-2 0m4-10h1v1l-1-1m-4 3a1 1 0 112 0 1 1 0 01-2 0m11 169a1 1 0 112 0 1 1 0 01-2 0m0-7a1 1 0 112 0 1 1 0 01-2 0m-4 3a1 1 0 113 0 1 1 0 01-3 0m4-10a1 1 0 112 0 1 1 0 01-2 0m-4 3a1 1 0 113 0 1 1 0 01-3 0m4-10a1 1 0 112 0 1 1 0 01-2 0m-4 3a1 1 0 113 0 1 1 0 01-3 0m4-11a1 1 0 112 0 1 1 0 01-2 0m-4 4a1 1 0 113 0 1 1 0 01-3 0m4-11a1 1 0 112 0 1 1 0 01-2 0m-4 4a1 1 0 113 0 1 1 0 01-3 0m4-11a1 1 0 112 0 1 1 0 01-2 0m-4 4a1 1 0 113 0 1 1 0 01-3 0m4-11a1 1 0 112 0 1 1 0 01-2 0m-4 3a1 1 0 113 0 1 1 0 01-3 0m4-10a1 1 0 112 0 1 1 0 01-2 0m-4 3a1 1 0 113 0 1 1 0 01-3 0m4-11a1 1 0 112 0 1 1 0 01-2 0m-4 4a1 1 0 113 0 1 1 0 01-3 0m4-11a1 1 0 112 0 1 1 0 01-2 0m-4 4a1 1 0 113 0 1 1 0 01-3 0m4-11a1 1 0 112 0 1 1 0 01-2 0m-4 4a1 1 0 113 0 1 1 0 01-3 0m4-11a1 1 0 112 0 1 1 0 01-2 0m-4 3a1 1 0 113 0 1 1 0 01-3 0m4-10a1 1 0 112 0 1 1 0 01-2 0m-4 3a1 1 0 113 0 1 1 0 01-3 0m4-10a1 1 0 112 0 1 1 0 01-2 0m-4 3a1 1 0 113 0 1 1 0 01-3 0m4-11a1 1 0 112 0 1 1 0 01-2 0m-4 4a1 1 0 113 0 1 1 0 01-3 0m4-11a1 1 0 112 0 1 1 0 01-2 0m-4 4a1 1 0 113 0 1 1 0 01-3 0m4-11a1 1 0 112 0 1 1 0 01-2 0m-4 4a1 1 0 113 0 1 1 0 01-3 0m4-11a1 1 0 112 0 1 1 0 01-2 0m-4 3a1 1 0 113 0 1 1 0 01-3 0m4-10a1 1 0 112 0 1 1 0 01-2 0m-4 3a1 1 0 113 0 1 1 0 01-3 0m4-11a1 1 0 112 0 1 1 0 01-2 0m-4 4a1 1 0 113 0 1 1 0 01-3 0m4-11a1 1 0 112 0 1 1 0 01-2 0m-4 4a1 1 0 113 0 1 1 0 01-3 0m4-11a1 1 0 112 0 1 1 0 01-2 0m-4 4a1 1 0 113 0 1 1 0 01-3 0m4-11a1 1 0 112 0 1 1 0 01-2 0m-4 3a1 1 0 113 0 1 1 0 01-3 0m0-7a1 1 0 113 0 1 1 0 01-3 0m11 176a1 1 0 112 0 1 1 0 01-2 0m0-7a1 1 0 112 0 1 1 0 01-2 0m-4 4a1 1 0 113 0 1 1 0 01-3 0m4-11a1 1 0 112 0 1 1 0 01-2 0m-4 3a1 1 0 113 0 1 1 0 01-3 0m4-10a1 1 0 112 0 1 1 0 01-2 0m-4 3a1 1 0 113 0 1 1 0 01-3 0m4-10a1 1 0 112 0 1 1 0 01-2 0m-4 3a1 1 0 113 0 1 1 0 01-3 0m4-11a1 1 0 112 0 1 1 0 01-2 0m-4 4a1 1 0 113 0 1 1 0 01-3 0m4-11a1 1 0 112 0 1 1 0 01-2 0m-4 4a1 1 0 113 0 1 1 0 01-3 0m4-11a1 1 0 112 0 1 1 0 01-2 0m-4 4a1 1 0 113 0 1 1 0 01-3 0m4-11a1 1 0 112 0 1 1 0 01-2 0m-4 3a1 1 0 113 0 1 1 0 01-3 0m4-10a1 1 0 112 0 1 1 0 01-2 0m-4 3a1 1 0 113 0 1 1 0 01-3 0m4-10a1 1 0 112 0 1 1 0 01-2 0m-4 3a1 1 0 113 0 1 1 0 01-3 0m4-11a1 1 0 112 0 1 1 0 01-2 0m-4 4a1 1 0 113 0 1 1 0 01-3 0m4-11a1 1 0 112 0 1 1 0 01-2 0m-4 4a1 1 0 113 0 1 1 0 01-3 0m4-11a1 1 0 112 0 1 1 0 01-2 0m-4 3a1 1 0 113 0 1 1 0 01-3 0m4-10a1 1 0 112 0 1 1 0 01-2 0m-4 3a1 1 0 113 0 1 1 0 01-3 0m4-10a1 1 0 112 0 1 1 0 01-2 0m-4 3a1 1 0 113 0 1 1 0 01-3 0m4-11a1 1 0 112 0 1 1 0 01-2 0m-4 4a1 1 0 113 0 1 1 0 01-3 0m4-11a1 1 0 112 0 1 1 0 01-2 0m-4 4a1 1 0 113 0 1 1 0 01-3 0m4-11a1 1 0 112 0 1 1 0 01-2 0m-4 3a1 1 0 113 0 1 1 0 01-3 0m4-10a1 1 0 112 0 1 1 0 01-2 0m-4 3a1 1 0 113 0 1 1 0 01-3 0m4-11a1 1 0 112 0 1 1 0 01-2 0m-4 4a1 1 0 113 0 1 1 0 01-3 0m4-11a1 1 0 112 0 1 1 0 01-2 0m-4 4a1 1 0 113 0 1 1 0 01-3 0m4-11a1 1 0 112 0 1 1 0 01-2 0m-4 4a1 1 0 113 0 1 1 0 01-3 0m4-11a1 1 0 112 0 1 1 0 01-2 0m-4 4a1 1 0 113 0 1 1 0 01-3 0m4-11a1 1 0 112 0 1 1 0 01-2 0m-4 3a1 1 0 113 0 1 1 0 01-3 0m0-7a1 1 0 113 0 1 1 0 01-3 0m11 183a1 1 0 112 0 1 1 0 01-2 0m-1 4l-1-1 1 1m1-11a1 1 0 112 0 1 1 0 01-2 0m-4 4a1 1 0 113 0 1 1 0 01-3 0m4-11a1 1 0 112 0 1 1 0 01-2 0m-4 4a1 1 0 113 0 1 1 0 01-3 0m4-11a1 1 0 112 0 1 1 0 01-2 0m-4 3a1 1 0 113 0 1 1 0 01-3 0m4-10a1 1 0 112 0 1 1 0 01-2 0m-4 3a1 1 0 113 0 1 1 0 01-3 0m4-10a1 1 0 112 0 1 1 0 01-2 0m-4 3a1 1 0 113 0 1 1 0 01-3 0m4-11a1 1 0 112 0 1 1 0 01-2 0m-4 4a1 1 0 113 0 1 1 0 01-3 0m4-11a1 1 0 112 0 1 1 0 01-2 0m-4 4a1 1 0 113 0 1 1 0 01-3 0m4-11a1 1 0 112 0 1 1 0 01-2 0m-4 4a1 1 0 113 0 1 1 0 01-3 0m4-11a1 1 0 112 0 1 1 0 01-2 0m-4 3a1 1 0 113 0 1 1 0 01-3 0m4-10a1 1 0 112 0 1 1 0 01-2 0m-4 3a1 1 0 113 0 1 1 0 01-3 0m4-11a1 1 0 112 0 1 1 0 01-2 0m-4 4a1 1 0 113 0 1 1 0 01-3 0m4-11a1 1 0 112 0 1 1 0 01-2 0m-4 4a1 1 0 113 0 1 1 0 01-3 0m4-11a1 1 0 112 0 1 1 0 01-2 0m-4 4a1 1 0 113 0 1 1 0 01-3 0m4-11a1 1 0 112 0 1 1 0 01-2 0m-4 3a1 1 0 113 0 1 1 0 01-3 0m4-10a1 1 0 112 0 1 1 0 01-2 0m-4 3a1 1 0 113 0 1 1 0 01-3 0m4-10a1 1 0 112 0 1 1 0 01-2 0m-4 3a1 1 0 113 0 1 1 0 01-3 0m4-11a1 1 0 112 0 1 1 0 01-2 0m-4 4a1 1 0 113 0 1 1 0 01-3 0m4-11a1 1 0 112 0 1 1 0 01-2 0m-4 4a1 1 0 113 0 1 1 0 01-3 0m4-11a1 1 0 112 0 1 1 0 01-2 0m-4 4a1 1 0 113 0 1 1 0 01-3 0m4-11a1 1 0 112 0 1 1 0 01-2 0m-4 3a1 1 0 113 0 1 1 0 01-3 0m4-10a1 1 0 112 0 1 1 0 01-2 0m-4 3a1 1 0 113 0 1 1 0 01-3 0m4-11a1 1 0 112 0 1 1 0 01-2 0m-4 4a1 1 0 113 0 1 1 0 01-3 0m4-11a1 1 0 112 0 1 1 0 01-2 0m-4 4a1 1 0 113 0 1 1 0 01-3 0m4-11a1 1 0 112 0 1 1 0 01-2 0m-4 4a1 1 0 113 0 1 1 0 01-3 0m4-11a1 1 0 112 0 1 1 0 01-2 0m-4 3a1 1 0 113 0 1 1 0 01-3 0m0-7h3a1 1 0 01-3 0m11 191a1 1 0 113 0 1 1 0 01-3 0m-1 3v1l-1-2 1 1m1-11a1 1 0 113 0 1 1 0 01-3 0m-4 8l-2-2 1 2m2-4a1 1 0 112 0 1 1 0 01-2 0m3-11a1 1 0 113 0 1 1 0 01-3 0m-3 4a1 1 0 112 0 1 1 0 01-2 0m3-11a1 1 0 113 0 1 1 0 01-3 0m-3 4a1 1 0 112 0 1 1 0 01-2 0m3-11a1 1 0 113 0 1 1 0 01-3 0m-3 3a1 1 0 112 0 1 1 0 01-2 0m3-10a1 1 0 113 0 1 1 0 01-3 0m-3 3a1 1 0 112 0 1 1 0 01-2 0m3-10a1 1 0 113 0 1 1 0 01-3 0m-3 3a1 1 0 112 0 1 1 0 01-2 0m3-11a1 1 0 113 0 1 1 0 01-3 0m-3 4a1 1 0 112 0 1 1 0 01-2 0m3-11a1 1 0 113 0 1 1 0 01-3 0m-3 4a1 1 0 112 0 1 1 0 01-2 0m3-11a1 1 0 113 0 1 1 0 01-3 0m-3 4a1 1 0 112 0 1 1 0 01-2 0m3-11a1 1 0 113 0 1 1 0 01-3 0m-3 3a1 1 0 112 0 1 1 0 01-2 0m3-10a1 1 0 113 0 1 1 0 01-3 0m-3 3a1 1 0 112 0 1 1 0 01-2 0m3-11a1 1 0 113 0 1 1 0 01-3 0m-3 4a1 1 0 112 0 1 1 0 01-2 0m3-11a1 1 0 113 0 1 1 0 01-3 0m-3 4a1 1 0 112 0 1 1 0 01-2 0m3-11a1 1 0 113 0 1 1 0 01-3 0m-3 4a1 1 0 112 0 1 1 0 01-2 0m3-11a1 1 0 113 0 1 1 0 01-3 0m-3 3a1 1 0 112 0 1 1 0 01-2 0m3-10a1 1 0 113 0 1 1 0 01-3 0m-3 3a1 1 0 112 0 1 1 0 01-2 0m3-10a1 1 0 113 0 1 1 0 01-3 0m-3 3a1 1 0 112 0 1 1 0 01-2 0m3-11a1 1 0 113 0 1 1 0 01-3 0m-3 4a1 1 0 112 0 1 1 0 01-2 0m3-11a1 1 0 113 0 1 1 0 01-3 0m-3 4a1 1 0 112 0 1 1 0 01-2 0m3-11a1 1 0 113 0 1 1 0 01-3 0m-3 4a1 1 0 112 0 1 1 0 01-2 0m3-11a1 1 0 113 0 1 1 0 01-3 0m-3 3a1 1 0 112 0 1 1 0 01-2 0m3-10a1 1 0 113 0 1 1 0 01-3 0m-3 3a1 1 0 112 0 1 1 0 01-2 0m3-11a1 1 0 113 0 1 1 0 01-3 0m-3 4a1 1 0 112 0 1 1 0 01-2 0m3-11a1 1 0 113 0 1 1 0 01-3 0m-3 4a1 1 0 112 0 1 1 0 01-2 0m3-11a1 1 0 113 0 1 1 0 01-3 0m-3 4a1 1 0 112 0 1 1 0 01-2 0m3-11a1 1 0 113 0 1 1 0 01-3 0m-3 3a1 1 0 112 0 1 1 0 01-2 0m0-7l2 1h-1l-1-1m11 198a1 1 0 112 0 1 1 0 01-3 0m-1 4l-2-1 1-1 1 1v1m1-11a1 1 0 113 0 1 1 0 01-3 0m-4 7h-1l-1-1h1l1 1m1-4a1 1 0 112 0 1 1 0 01-2 0m3-11a1 1 0 113 0 1 1 0 01-3 0m-3 4a1 1 0 112 0 1 1 0 01-2 0m4-11a1 1 0 112 0 1 1 0 01-2 0m-4 4a1 1 0 112 0 1 1 0 01-2 0m4-11a1 1 0 112 0 1 1 0 01-2 0m-4 4a1 1 0 112 0 1 1 0 01-2 0m4-11a1 1 0 112 0 1 1 0 01-2 0m-4 3a1 1 0 112 0 1 1 0 01-2 0m4-10a1 1 0 112 0 1 1 0 01-2 0m-4 3a1 1 0 112 0 1 1 0 01-2 0m4-10a1 1 0 112 0 1 1 0 01-2 0m-4 3a1 1 0 112 0 1 1 0 01-2 0m4-11a1 1 0 112 0 1 1 0 01-2 0m-4 4a1 1 0 112 0 1 1 0 01-2 0m4-11a1 1 0 112 0 1 1 0 01-2 0m-4 4a1 1 0 112 0 1 1 0 01-2 0m4-11a1 1 0 112 0 1 1 0 01-2 0m-4 3a1 1 0 112 0 1 1 0 01-2 0m4-10a1 1 0 112 0 1 1 0 01-2 0m-4 3a1 1 0 112 0 1 1 0 01-2 0m4-10a1 1 0 112 0 1 1 0 01-2 0m-4 3a1 1 0 112 0 1 1 0 01-2 0m4-11a1 1 0 112 0 1 1 0 01-2 0m-4 4a1 1 0 112 0 1 1 0 01-2 0m4-11a1 1 0 112 0 1 1 0 01-2 0m-4 4a1 1 0 112 0 1 1 0 01-2 0m4-11a1 1 0 112 0 1 1 0 01-2 0m-4 4a1 1 0 112 0 1 1 0 01-2 0m4-11a1 1 0 112 0 1 1 0 01-2 0m-4 3a1 1 0 112 0 1 1 0 01-2 0m4-10a1 1 0 112 0 1 1 0 01-2 0m-4 3a1 1 0 112 0 1 1 0 01-2 0m4-10a1 1 0 112 0 1 1 0 01-2 0m-4 3a1 1 0 112 0 1 1 0 01-2 0m4-11a1 1 0 112 0 1 1 0 01-2 0m-4 4a1 1 0 112 0 1 1 0 01-2 0m4-11a1 1 0 112 0 1 1 0 01-2 0m-4 4a1 1 0 112 0 1 1 0 01-2 0m4-11a1 1 0 112 0 1 1 0 01-2 0m-4 3a1 1 0 112 0 1 1 0 01-2 0m4-10a1 1 0 112 0 1 1 0 01-2 0m-4 3a1 1 0 112 0 1 1 0 01-2 0m4-11a1 1 0 112 0 1 1 0 01-2 0m-4 4a1 1 0 112 0 1 1 0 01-2 0m4-11a1 1 0 112 0 1 1 0 01-2 0m-4 4a1 1 0 112 0 1 1 0 01-2 0m4-11a1 1 0 112 0 1 1 0 01-2 0m-4 4a1 1 0 112 0 1 1 0 01-2 0m4-11a1 1 0 112 0 1 1 0 01-2 0m-4 3a1 1 0 112 0 1 1 0 01-2 0m4-10a1 1 0 112 0 1 1 0 01-2 0m-4 3a1 1 0 112 0 1 1 0 01-2 0m1-6h1-1m10 204a1 1 0 112 0 1 1 0 01-2 0m-6 1l-1-2h1l1 1-1 1m4 4l-2-2a1 1 0 013 0l-1 2m2-12a1 1 0 112 0 1 1 0 01-2 0m-4 3a1 1 0 113 0 1 1 0 01-3 0m4-11a1 1 0 112 0 1 1 0 01-2 0m-4 4a1 1 0 113 0 1 1 0 01-3 0m4-11a1 1 0 112 0 1 1 0 01-2 0m-4 4a1 1 0 113 0 1 1 0 01-3 0m4-11a1 1 0 112 0 1 1 0 01-2 0m-4 4a1 1 0 113 0 1 1 0 01-3 0m4-11a1 1 0 112 0 1 1 0 01-2 0m-4 3a1 1 0 113 0 1 1 0 01-3 0m4-10a1 1 0 112 0 1 1 0 01-2 0m-4 3a1 1 0 113 0 1 1 0 01-3 0m4-10a1 1 0 112 0 1 1 0 01-2 0m-4 3a1 1 0 113 0 1 1 0 01-3 0m4-11a1 1 0 112 0 1 1 0 01-2 0m-4 4a1 1 0 113 0 1 1 0 01-3 0m4-11a1 1 0 112 0 1 1 0 01-2 0m-4 4a1 1 0 113 0 1 1 0 01-3 0m4-11a1 1 0 112 0 1 1 0 01-2 0m-4 4a1 1 0 113 0 1 1 0 01-3 0m4-11a1 1 0 112 0 1 1 0 01-2 0m-4 3a1 1 0 113 0 1 1 0 01-3 0m4-10a1 1 0 112 0 1 1 0 01-2 0m-4 3a1 1 0 113 0 1 1 0 01-3 0m4-11a1 1 0 112 0 1 1 0 01-2 0m-4 4a1 1 0 113 0 1 1 0 01-3 0m4-11a1 1 0 112 0 1 1 0 01-2 0m-4 4a1 1 0 113 0 1 1 0 01-3 0m4-11a1 1 0 112 0 1 1 0 01-2 0m-4 4a1 1 0 113 0 1 1 0 01-3 0m4-11a1 1 0 112 0 1 1 0 01-2 0m-4 3a1 1 0 113 1 1 1 0 01-3 0m4-11a1 1 0 112 0 1 1 0 01-2 0m-4 3a1 1 0 113 0 1 1 0 01-3 0m4-10a1 1 0 112 0 1 1 0 01-2 0m-4 3a1 1 0 113 0 1 1 0 01-3 0m4-11a1 1 0 112 0 1 1 0 01-2 0m-4 4a1 1 0 113 0 1 1 0 01-3 0m4-11a1 1 0 112 0 1 1 0 01-2 0m-4 4a1 1 0 113 0 1 1 0 01-3 0m4-11a1 1 0 112 0 1 1 0 01-2 0m-4 4a1 1 0 113 0 1 1 0 01-3 0m4-11a1 1 0 112 0 1 1 0 01-2 0m-4 3a1 1 0 113 0 1 1 0 01-3 0m4-10a1 1 0 112 0 1 1 0 01-2 0m-4 3a1 1 0 113 0 1 1 0 01-3 0m4-11a1 1 0 112 0 1 1 0 01-2 0m-4 4a1 1 0 113 0 1 1 0 01-3 0m4-11a1 1 0 112 0 1 1 0 01-2 0m-4 4a1 1 0 113 0 1 1 0 01-3 0m4-11a1 1 0 112 0 1 1 0 01-2 0m-4 4a1 1 0 113 0 1 1 0 01-3 0m4-11a1 1 0 112 0 1 1 0 01-2 0m-4 3a1 1 0 113 0 1 1 0 01-3 0m4-10a1 1 0 112 0 1 1 0 01-2 0m-1 3a1 1 0 11-3 0 1 1 0 013 0m6 193l-1 2a1 1 0 011-2m2-10a1 1 0 112 0 1 1 0 01-2 0m-4 4a1 1 0 113 0 1 1 0 01-3 0m4-11a1 1 0 112 0 1 1 0 01-2 0m-4 4a1 1 0 113 0 1 1 0 01-3 0m4-11a1 1 0 112 0 1 1 0 01-2 0m-4 4a1 1 0 113 0 1 1 0 01-3 0m4-11a1 1 0 112 0 1 1 0 01-2 0m-4 4a1 1 0 113 0 1 1 0 01-3 0m4-11a1 1 0 112 0 1 1 0 01-2 0m-4 3a1 1 0 113 0 1 1 0 01-3 0m4-10a1 1 0 112 0 1 1 0 01-2 0m-4 3a1 1 0 113 0 1 1 0 01-3 0m4-10a1 1 0 112 0 1 1 0 01-2 0m-4 3a1 1 0 113 0 1 1 0 01-3 0m4-11a1 1 0 112 0 1 1 0 01-2 0m-4 4a1 1 0 113 0 1 1 0 01-3 0m4-11a1 1 0 112 0 1 1 0 01-2 0m-4 4a1 1 0 113 0 1 1 0 01-3 0m4-11a1 1 0 112 0 1 1 0 01-2 0m-4 4a1 1 0 113 0 1 1 0 01-3 0m4-11a1 1 0 112 0 1 1 0 01-2 0m-4 3a1 1 0 113 0 1 1 0 01-3 0m4-10a1 1 0 112 0 1 1 0 01-2 0m-4 3a1 1 0 113 0 1 1 0 01-3 0m4-10a1 1 0 112 0 1 1 0 01-2 0m-4 3a1 1 0 113 0 1 1 0 01-3 0m4-11a1 1 0 112 0 1 1 0 01-2 0m-4 4a1 1 0 113 0 1 1 0 01-3 0m4-11a1 1 0 112 0 1 1 0 01-2 0m-4 4a1 1 0 113 0 1 1 0 01-3 0m4-11a1 1 0 112 0 1 1 0 01-2 0m-4 3a1 1 0 113 0 1 1 0 01-3 0m4-10a1 1 0 112 0 1 1 0 01-2 0m-4 3a1 1 0 113 0 1 1 0 01-3 0m4-10a1 1 0 112 0 1 1 0 01-2 0m-4 3a1 1 0 113 0 1 1 0 01-3 0m4-11a1 1 0 112 0 1 1 0 01-2 0m-4 4a1 1 0 113 0 1 1 0 01-3 0m4-11a1 1 0 112 0 1 1 0 01-2 0m-4 4a1 1 0 113 0 1 1 0 01-3 0m4-11a1 1 0 112 0 1 1 0 01-2 0m-4 3a1 1 0 113 0 1 1 0 01-3 0m4-10a1 1 0 112 0 1 1 0 01-2 0m-4 3a1 1 0 113 0 1 1 0 01-3 0m4-11a1 1 0 112 0 1 1 0 01-2 0m-4 4a1 1 0 113 0 1 1 0 01-3 0m4-11a1 1 0 112 0 1 1 0 01-2 0m-4 4a1 1 0 113 0 1 1 0 01-3 0m4-11a1 1 0 112 0 1 1 0 01-2 0m-4 4a1 1 0 113 0 1 1 0 01-3 0m4-11a1 1 0 112 0 1 1 0 01-2 0m-4 4a1 1 0 113 0 1 1 0 01-3 0m4-11v-1h2v1a1 1 0 01-2 0m-4 3a1 1 0 113 0 1 1 0 01-3 0m10 179l-1 2a1 1 0 010-2l1 1m2-5l-1 2v-1l1-1m-1-6a1 1 0 112 0 1 1 0 01-2 0m-3 4a1 1 0 112 0 1 1 0 01-2 0m3-11a1 1 0 112 0 1 1 0 01-2 0m-3 4a1 1 0 112 0 1 1 0 01-2 0m3-11a1 1 0 112 0 1 1 0 01-2 0m-3 3a1 1 0 112 0 1 1 0 01-2 0m3-10a1 1 0 112 0 1 1 0 01-2 0m-3 3a1 1 0 112 0 1 1 0 01-2 0m3-10a1 1 0 112 0 1 1 0 01-2 0m-3 3a1 1 0 112 0 1 1 0 01-2 0m3-11a1 1 0 112 0 1 1 0 01-2 0m-3 4a1 1 0 112 0 1 1 0 01-2 0m3-11a1 1 0 112 0 1 1 0 01-2 0m-3 4a1 1 0 112 0 1 1 0 01-2 0m3-11a1 1 0 112 0 1 1 0 01-2 0m-3 4a1 1 0 112 0 1 1 0 01-2 0m3-11a1 1 0 112 0 1 1 0 01-2 0m-3 3a1 1 0 112 0 1 1 0 01-2 0m3-10a1 1 0 112 0 1 1 0 01-2 0m-3 3a1 1 0 112 0 1 1 0 01-2 0m3-11a1 1 0 112 0 1 1 0 01-2 0m-3 4a1 1 0 112 0 1 1 0 01-2 0m3-11a1 1 0 112 0 1 1 0 01-2 0m-3 4a1 1 0 112 0 1 1 0 01-2 0m3-11a1 1 0 112 0 1 1 0 01-2 0m-3 4a1 1 0 112 0 1 1 0 01-2 0m3-11a1 1 0 112 0 1 1 0 01-2 0m-3 3a1 1 0 112 0 1 1 0 01-2 0m3-10a1 1 0 112 0 1 1 0 01-2 0m-3 3a1 1 0 112 0 1 1 0 01-2 0m3-10a1 1 0 112 0 1 1 0 01-2 0m-3 3a1 1 0 112 0 1 1 0 01-2 0m3-11a1 1 0 112 0 1 1 0 01-2 0m-3 4a1 1 0 112 0 1 1 0 01-2 0m3-11a1 1 0 112 0 1 1 0 01-2 0m-3 4a1 1 0 112 0 1 1 0 01-2 0m3-11a1 1 0 112 0 1 1 0 01-2 0m-3 4a1 1 0 112 0 1 1 0 01-2 0m3-11a1 1 0 112 0 1 1 0 01-2 0m-3 3a1 1 0 112 0 1 1 0 01-2 0m3-10a1 1 0 112 0 1 1 0 01-2 0m-3 3a1 1 0 112 0 1 1 0 01-2 0m3-11a1 1 0 112 0 1 1 0 01-2 0m-3 4a1 1 0 112 0 1 1 0 01-2 0m3-11a1 1 0 112 0 1 1 0 01-2 0m-3 4a1 1 0 112 0 1 1 0 01-2 0m3-11a1 1 0 112 0 1 1 0 01-2 0m-3 4a1 1 0 112 0 1 1 0 01-2 0m3-11h2l-1 1-1-1m-3 3a1 1 0 112 0 1 1 0 01-2 0m7 166a1 1 0 112 0 1 1 0 01-2 0m4-5h1l-1 2-1-1 1-1m-1-6a1 1 0 113 0 1 1 0 01-3 0m-3 3a1 1 0 112 0 1 1 0 01-2 0m3-10a1 1 0 113 0 1 1 0 01-3 0m-3 3a1 1 0 112 0 1 1 0 01-2 0m3-10a1 1 0 113 0 1 1 0 01-3 0m-3 3a1 1 0 112 0 1 1 0 01-2 0m3-11a1 1 0 113 0 1 1 0 01-3 0m-3 4a1 1 0 112 0 1 1 0 01-2 0m3-11a1 1 0 113 0 1 1 0 01-3 0m-3 4a1 1 0 112 0 1 1 0 01-2 0m3-11a1 1 0 113 0 1 1 0 01-3 0m-3 4a1 1 0 112 0 1 1 0 01-2 0m3-11a1 1 0 113 0 1 1 0 01-3 0m-3 3a1 1 0 112 0 1 1 0 01-2 0m3-10a1 1 0 113 0 1 1 0 01-3 0m-3 3a1 1 0 112 0 1 1 0 01-2 0m3-11a1 1 0 113 0 1 1 0 01-3 0m-3 4a1 1 0 112 0 1 1 0 01-2 0m3-11a1 1 0 113 0 1 1 0 01-3 0m-3 4a1 1 0 112 0 1 1 0 01-2 0m3-11a1 1 0 113 0 1 1 0 01-3 0m-3 4a1 1 0 112 0 1 1 0 01-2 0m3-11a1 1 0 113 0 1 1 0 01-3 0m-3 3a1 1 0 112 0 1 1 0 01-2 0m3-10a1 1 0 113 0 1 1 0 01-3 0m-3 3a1 1 0 112 0 1 1 0 01-2 0m3-10a1 1 0 113 0 1 1 0 01-3 0m-3 3a1 1 0 112 0 1 1 0 01-2 0m3-11a1 1 0 113 0 1 1 0 01-3 0m-3 4a1 1 0 112 0 1 1 0 01-2 0m3-11a1 1 0 113 0 1 1 0 01-3 0m-3 4a1 1 0 112 0 1 1 0 01-2 0m3-11a1 1 0 113 0 1 1 0 01-3 0m-3 4a1 1 0 112 0 1 1 0 01-2 0m3-11a1 1 0 113 0 1 1 0 01-3 0m-3 3a1 1 0 112 0 1 1 0 01-2 0m3-10a1 1 0 113 0 1 1 0 01-3 0m-3 3a1 1 0 112 0 1 1 0 01-2 0m3-11a1 1 0 113 0 1 1 0 01-3 0m-3 4a1 1 0 112 0 1 1 0 01-2 0m3-11a1 1 0 113 0 1 1 0 01-3 0m-3 4a1 1 0 112 0 1 1 0 01-2 0m3-11a1 1 0 113 0 1 1 0 01-3 0m-3 4a1 1 0 112 0 1 1 0 01-2 0m0-8a1 1 0 112 0 1 1 0 01-2 0m7 151a1 1 0 112 0 1 1 0 01-2 0m3-10a1 1 0 113 0 1 1 0 01-3 0m-3 3a1 1 0 112 0 1 1 0 01-2 0m4-11a1 1 0 112 0 1 1 0 01-2 0m-4 4a1 1 0 112 0 1 1 0 01-2 0m4-11a1 1 0 112 0 1 1 0 01-2 0m-4 4a1 1 0 112 0 1 1 0 01-2 0m4-11a1 1 0 112 0 1 1 0 01-2 0m-4 3a1 1 0 112 0 1 1 0 01-2 0m4-10a1 1 0 112 0 1 1 0 01-2 0m-4 3a1 1 0 112 0 1 1 0 01-2 0m4-10a1 1 0 112 0 1 1 0 01-2 0m-4 3a1 1 0 112 0 1 1 0 01-2 0m4-11a1 1 0 112 0 1 1 0 01-2 0m-4 4a1 1 0 112 0 1 1 0 01-2 0m4-11a1 1 0 112 0 1 1 0 01-2 0m-4 4a1 1 0 112 0 1 1 0 01-2 0m4-11a1 1 0 112 0 1 1 0 01-2 0m-4 4a1 1 0 112 0 1 1 0 01-2 0m4-11a1 1 0 112 0 1 1 0 01-2 0m-4 3a1 1 0 112 0 1 1 0 01-2 0m4-10a1 1 0 112 0 1 1 0 01-2 0m-4 3a1 1 0 112 0 1 1 0 01-2 0m4-10a1 1 0 112 0 1 1 0 01-2 0m-4 3a1 1 0 112 0 1 1 0 01-2 0m4-11a1 1 0 112 0 1 1 0 01-2 0m-4 4a1 1 0 112 0 1 1 0 01-2 0m4-11a1 1 0 112 0 1 1 0 01-2 0m-4 4a1 1 0 112 0 1 1 0 01-2 0m4-11a1 1 0 112 0 1 1 0 01-2 0m-4 3a1 1 0 112 0 1 1 0 01-2 0m4-10a1 1 0 112 0 1 1 0 01-2 0m-4 3a1 1 0 112 0 1 1 0 01-2 0m4-11a1 1 0 112 0 1 1 0 01-2 0m-4 4a1 1 0 112 0 1 1 0 01-2 0m4-11a1 1 0 112 0 1 1 0 01-2 0m-4 4a1 1 0 112 0 1 1 0 01-2 0m4-11a1 1 0 112 0 1 1 0 01-2 0m-4 4a1 1 0 112 0 1 1 0 01-2 0m4-11a1 1 0 112 0 1 1 0 01-2 0m-4 3a1 1 0 112 0 1 1 0 01-2 0m0-7a1 1 0 112 0 1 1 0 01-2 0m6 147l-1 2a1 1 0 010-3l1 1m2-4l-1 1 1-1m-1-6a1 1 0 113 0 1 1 0 01-3 0m4-11a1 1 0 112 0 1 1 0 01-2 0m-4 4a1 1 0 113 0 1 1 0 01-3 0m4-11a1 1 0 112 0 1 1 0 01-2 0m-4 3a1 1 0 113 0 1 1 0 01-3 0m4-10a1 1 0 112 0 1 1 0 01-2 0m-4 3a1 1 0 113 0 1 1 0 01-3 0m4-11a1 1 0 112 0 1 1 0 01-2 0m-4 4a1 1 0 113 0 1 1 0 01-3 0m4-11a1 1 0 112 0 1 1 0 01-2 0m-4 4a1 1 0 113 0 1 1 0 01-3 0m4-11a1 1 0 112 0 1 1 0 01-2 0m-4 4a1 1 0 113 0 1 1 0 01-3 0m4-11a1 1 0 112 0 1 1 0 01-2 0m-4 3a1 1 0 113 1 1 1 0 01-3 0m4-11a1 1 0 112 0 1 1 0 01-2 0m-4 3a1 1 0 113 0 1 1 0 01-3 0m4-10a1 1 0 112 0 1 1 0 01-2 0m-4 3a1 1 0 113 0 1 1 0 01-3 0m4-11a1 1 0 112 0 1 1 0 01-2 0m-4 4a1 1 0 113 0 1 1 0 01-3 0m4-11a1 1 0 112 0 1 1 0 01-2 0m-4 4a1 1 0 113 0 1 1 0 01-3 0m4-11a1 1 0 112 0 1 1 0 01-2 0m-4 4a1 1 0 113 0 1 1 0 01-3 0m4-11a1 1 0 112 0 1 1 0 01-2 0m-4 3a1 1 0 113 0 1 1 0 01-3 0m4-10a1 1 0 112 0 1 1 0 01-2 0m-4 3a1 1 0 113 0 1 1 0 01-3 0m4-11a1 1 0 112 0 1 1 0 01-2 0m-4 4a1 1 0 113 0 1 1 0 01-3 0m4-11a1 1 0 112 0 1 1 0 01-2 0m-4 4a1 1 0 113 0 1 1 0 01-3 0m4-11a1 1 0 112 0 1 1 0 01-2 0m-4 4a1 1 0 113 0 1 1 0 01-3 0m4-11a1 1 0 112 0 1 1 0 01-2 0m-4 3a1 1 0 113 0 1 1 0 01-3 0m1-8h1l1 1a1 1 0 11-2-1m5 134v1a1 1 0 01-2-1 1 1 0 012 0m3-5l-1 2a1 1 0 011-2m2-9a1 1 0 112 0 1 1 0 01-2 0m-4 3a1 1 0 113 0 1 1 0 01-3 0m4-10a1 1 0 112 0 1 1 0 01-2 0m-4 3a1 1 0 113 0 1 1 0 01-3 0m4-11a1 1 0 112 1 1 1 0 01-2 0m-4 3a1 1 0 113 0 1 1 0 01-3 0m4-11a1 1 0 112 0 1 1 0 01-2 0m-4 4a1 1 0 113 0 1 1 0 01-3 0m4-11a1 1 0 112 0 1 1 0 01-2 0m-4 4a1 1 0 113 0 1 1 0 01-3 0m4-11a1 1 0 112 0 1 1 0 01-2 0m-4 4a1 1 0 113 0 1 1 0 01-3 0m4-11a1 1 0 112 0 1 1 0 01-2 0m-4 3a1 1 0 113 0 1 1 0 01-3 0m4-10a1 1 0 112 0 1 1 0 01-2 0m-4 3a1 1 0 113 0 1 1 0 01-3 0m4-11a1 1 0 112 0 1 1 0 01-2 0m-4 4a1 1 0 113 0 1 1 0 01-3 0m4-11a1 1 0 112 0 1 1 0 01-2 0m-4 4a1 1 0 113 0 1 1 0 01-3 0m4-11a1 1 0 112 0 1 1 0 01-2 0m-4 4a1 1 0 113 0 1 1 0 01-3 0m4-11a1 1 0 112 0 1 1 0 01-2 0m-4 3a1 1 0 113 0 1 1 0 01-3 0m4-10a1 1 0 112 0 1 1 0 01-2 0m-4 3a1 1 0 113 0 1 1 0 01-3 0m4-11a1 1 0 112 0 1 1 0 01-2 0m-4 4a1 1 0 113 0 1 1 0 01-3 0m4-11a1 1 0 112 0 1 1 0 01-2 0m-4 4a1 1 0 113 0 1 1 0 01-3 0m4-11a1 1 0 112 0 1 1 0 01-2 0m-4 4a1 1 0 113 0 1 1 0 01-3 0m4-11a1 1 0 112 0 1 1 0 01-2 0m-4 4a1 1 0 113 0 1 1 0 01-3 0m0-8h3a1 1 0 01-3 0m10 114l-1 2a1 1 0 010-2h1m2-3h-1 1m-1-7a1 1 0 113 0 1 1 0 01-3 0m-3 4a1 1 0 112 0 1 1 0 01-2 0m3-11a1 1 0 113 0 1 1 0 01-3 0m-3 4a1 1 0 112 0 1 1 0 01-2 0m3-11a1 1 0 113 0 1 1 0 01-3 0m-3 4a1 1 0 112 0 1 1 0 01-2 0m3-11a1 1 0 112 0 1 1 0 01-2 0m-4 4a1 1 0 113 0 1 1 0 01-3 0m4-11a1 1 0 112 0 1 1 0 01-2 0m-4 3a1 1 0 113 0 1 1 0 01-3 0m4-10a1 1 0 112 0 1 1 0 01-2 0m-4 3a1 1 0 113 0 1 1 0 01-3 0m4-10a1 1 0 112 0 1 1 0 01-2 0m-4 3a1 1 0 113 0 1 1 0 01-3 0m4-11a1 1 0 112 0 1 1 0 01-2 0m-4 4a1 1 0 113 0 1 1 0 01-3 0m4-11a1 1 0 112 0 1 1 0 01-2 0m-4 4a1 1 0 113 0 1 1 0 01-3 0m4-11a1 1 0 112 0 1 1 0 01-2 0m-4 3a1 1 0 113 0 1 1 0 01-3 0m4-10a1 1 0 112 0 1 1 0 01-2 0m-4 3a1 1 0 113 0 1 1 0 01-3 0m4-11a1 1 0 112 0 1 1 0 01-2 0m-4 4a1 1 0 113 0 1 1 0 01-3 0m4-11a1 1 0 112 0 1 1 0 01-2 0m-4 4a1 1 0 113 0 1 1 0 01-3 0m4-11a1 1 0 112 0 1 1 0 01-2 0m-4 4a1 1 0 113 0 1 1 0 01-3 0m4-11a1 1 0 112 0 1 1 0 01-2 0m-4 4a1 1 0 113 0 1 1 0 01-3 0m0-7h3l-1 1-1-1m9 100l-1 1a1 1 0 01-1-1l1-1 1 1m2-5l-1 2v-1l1-1m-1-6a1 1 0 112 0 1 1 0 01-2 0m-3 4a1 1 0 112 0 1 1 0 01-2 0m3-11a1 1 0 112 0 1 1 0 01-2 0m-3 4a1 1 0 112 0 1 1 0 01-2 0m3-11a1 1 0 112 0 1 1 0 01-2 0m-3 3a1 1 0 112 0 1 1 0 01-2 0m3-10a1 1 0 112 0 1 1 0 01-2 0m-3 3a1 1 0 112 0 1 1 0 01-2 0m3-10a1 1 0 112 0 1 1 0 01-2 0m-3 3a1 1 0 112 0 1 1 0 01-2 0m3-11a1 1 0 112 0 1 1 0 01-2 0m-3 4a1 1 0 112 0 1 1 0 01-2 0m3-11a1 1 0 112 0 1 1 0 01-2 0m-3 4a1 1 0 112 0 1 1 0 01-2 0m3-11a1 1 0 112 0 1 1 0 01-2 0m-3 4a1 1 0 112 0 1 1 0 01-2 0m3-11a1 1 0 112 0 1 1 0 01-2 0m-3 3a1 1 0 112 0 1 1 0 01-2 0m3-11a1 1 0 112 0 1 1 0 01-2 0m-3 4a1 1 0 112 0 1 1 0 01-2 0m3-11a1 1 0 112 0 1 1 0 01-2 0m-3 4a1 1 0 112 0 1 1 0 01-2 0m3-11a1 1 0 112 0 1 1 0 01-2 0m-3 4a1 1 0 112 0 1 1 0 01-2 0m3-11a1 1 0 112 0 1 1 0 01-2 0m-3 4a1 1 0 112 0 1 1 0 01-2 0m7 79a1 1 0 112 0 1 1 0 01-2 0m4-5h1l-1 2a1 1 0 010-2m-1-6a1 1 0 113 0 1 1 0 01-3 0m-3 3a1 1 0 112 0 1 1 0 01-2 0m3-10a1 1 0 113 0 1 1 0 01-3 0m-3 3a1 1 0 112 0 1 1 0 01-2 0m3-11a1 1 0 113 1 1 1 0 01-3 0m-3 3a1 1 0 112 0 1 1 0 01-2 0m3-11a1 1 0 113 0 1 1 0 01-3 0m-3 4a1 1 0 112 0 1 1 0 01-2 0m3-11a1 1 0 113 0 1 1 0 01-3 0m-3 4a1 1 0 112 0 1 1 0 01-2 0m3-11a1 1 0 113 0 1 1 0 01-3 0m-3 3a1 1 0 112 0 1 1 0 01-2 0m3-10a1 1 0 113 0 1 1 0 01-3 0m-3 3a1 1 0 112 0 1 1 0 01-2 0m3-11a1 1 0 113 0 1 1 0 01-3 0m-3 4a1 1 0 112 0 1 1 0 01-2 0m3-11a1 1 0 113 0 1 1 0 01-3 0m-3 4a1 1 0 112 0 1 1 0 01-2 0m3-11a1 1 0 113 0 1 1 0 01-3 0m-3 4a1 1 0 112 0 1 1 0 01-2 0m0-7a1 1 0 112 0 1 1 0 01-2 0m4-5h1l1 1a1 1 0 11-3 0l1-1m3 69a1 1 0 112 0 1 1 0 01-2 0m3-11a1 1 0 113 0 1 1 0 01-3 0m-3 4a1 1 0 112 0 1 1 0 01-2 0m4-11a1 1 0 112 0 1 1 0 01-2 0m-4 4a1 1 0 112 0 1 1 0 01-2 0m4-11a1 1 0 112 0 1 1 0 01-2 0m-4 4a1 1 0 112 0 1 1 0 01-2 0m4-11a1 1 0 112 0 1 1 0 01-2 0m-4 3a1 1 0 112 0 1 1 0 01-2 0m4-10a1 1 0 112 0 1 1 0 01-2 0m-4 3a1 1 0 112 0 1 1 0 01-2 0m4-11a1 1 0 112 0 1 1 0 01-2 0m-4 4a1 1 0 112 0 1 1 0 01-2 0m4-11a1 1 0 112 0 1 1 0 01-2 0m-4 4a1 1 0 112 0 1 1 0 01-2 0m4-11a1 1 0 112 0 1 1 0 01-2 0m-4 4a1 1 0 112 0 1 1 0 01-2 0m4-11h2l-1 1-1-1m-4 3a1 1 0 112 0 1 1 0 01-2 0m5 63a1 1 0 010-3l1 1zm3-6l-1 1 1-1m3-10a1 1 0 112 0 1 1 0 01-2 0m-4 4a1 1 0 113 0 1 1 0 01-3 0m4-11a1 1 0 112 0 1 1 0 01-2 0m-4 4a1 1 0 113 0 1 1 0 01-3 0m4-11a1 1 0 112 0 1 1 0 01-2 0m-4 3a1 1 0 113 0 1 1 0 01-3 0m4-10a1 1 0 112 0 1 1 0 01-2 0m-4 3a1 1 0 113 0 1 1 0 01-3 0m4-11a1 1 0 112 0 1 1 0 01-2 0m-4 4a1 1 0 113 0 1 1 0 01-3 0m4-11a1 1 0 112 0 1 1 0 01-2 0m-4 4a1 1 0 113 0 1 1 0 01-3 0m4-11a1 1 0 112 0 1 1 0 01-2 0m-4 4a1 1 0 113 0 1 1 0 01-3 0m4-10h2-1-1m-4 2a1 1 0 113 0 1 1 0 01-3 0m9 42l-1 3a1 1 0 011-3m2-9a1 1 0 112 0 1 1 0 01-2 0m-4 3a1 1 0 113 0 1 1 0 01-3 0m4-10a1 1 0 112 0 1 1 0 01-2 0m-4 3a1 1 0 113 0 1 1 0 01-3 0m4-11a1 1 0 112 0 1 1 0 01-2 0m-4 4a1 1 0 113 0 1 1 0 01-3 0m4-11a1 1 0 112 0 1 1 0 01-2 0m-4 4a1 1 0 113 0 1 1 0 01-3 0m4-11a1 1 0 112 0 1 1 0 01-2 0m-4 4a1 1 0 113 0 1 1 0 01-3 0m0-8a1 1 0 113 0 1 1 0 01-3 0m10 29l-1 1a1 1 0 010-2l1 1m2-5l-1 2 1-2m-1-6a1 1 0 113 0 1 1 0 01-3 0m-3 4a1 1 0 112 0 1 1 0 01-2 0m3-11a1 1 0 113 0 1 1 0 01-3 0m-3 4a1 1 0 112 0 1 1 0 01-2 0m3-11a1 1 0 113 0 1 1 0 01-3 0m-3 4a1 1 0 112 0 1 1 0 01-2 0m0-8a1 1 0 112 0 1 1 0 01-2 0m7 15a1 1 0 112 0 1 1 0 01-2 0m5-5l-1 2-1-1 2-1m-2-6a1 1 0 113 0 1 1 0 01-3 0m-3 4a1 1 0 112 0 1 1 0 01-2 0m0-8h2a1 1 0 11-2 0m8 2l1-1-2-1 1 2" fill="#dcdcdc"/></g><g clip-path="url(#c)" transform="matrix(1.33333 0 0 -1.33333 0 667)"><path d="M378 64c0-17-57-31-128-31S122 48 122 65s57 31 128 31 128-14 128-31" fill="#ececec"/></g><path d="M290 560l155-21 66 47-153 30z" fill="#ffc800"/><g clip-path="url(#d)" transform="matrix(1.33333 0 0 -1.33333 0 667)"><path d="M225 80l46-39 108 21-48 34-33-1-15-4-21-1-37-10" fill="#fff"/><path d="M282 91l6-5 6-5 11-9 11-10 5-5 6-5-6 5-6 5-11 9-11 10-5 5zm7-25l4 1h4a117 117 0 009 1 73 73 0 00-9-1l-4-1h-4m-25-10l11 3 11 3a171 171 0 007 2h1l3 1h12l-12-1h-2l-3-1-6-1-11-3-11-3m4-3l10 3 11 4 5 1h1l2 1h3l11 1-11-2h-4l-2-1-5-1-11-3-10-3m3-2l11 3 10 3 6 1 5 1 11 1-11-2-5-1-6-1-10-3-11-2m53 10l10 3 2 1h3l5 1 10 1 11 2-11-2-10-2h-5l-1-1h-2l-2-1a308 308 0 00-10-2m-3 3l9 3 5 1h5l10 2 11 1-10-2-10-1-5-1h-3l-2-1-10-2m-3 3l9 2 5 1 5 1 10 1 10 1-10-1-10-2h-5l-5-1-9-2m-3 2a107 107 0 0012 4h8l20 2a1574 1574 0 00-20-2l-5-1h-3l-2-1-10-2m-3 3a107 107 0 0012 3h3l5 1 20 1-20-2h-8l-2-1-10-2m-3 2a107 107 0 0013 4h7l20 2-20-2-5-1h-5l-10-3m-2 3a107 107 0 0012 3h2l5 1 20 1-20-2h-7l-3-1-9-2m-4 2a107 107 0 0012 3l2 1h6l20 2-20-2-5-1h-3l-2-1-10-2m-4 2a107 107 0 0012 4h8l20 2-20-2-5-1h-3-2l-10-3m-3 3a106 106 0 0013 3h2l5 1 20 1-20-2h-5l-3-1h-2l-10-3m-2 3a106 106 0 0012 4h7l20 1-20-1-5-1h-5l-9-3m-3 3a107 107 0 0012 3h28-28l-3-1-9-3m-17-41a217 217 0 0027 7l6 1 11 1-11-2-6-1-5-1-11-2-11-3m52 11l11 3 11 2 5 1 6 1 11 1-11-2h-6l-5-2-11-2-11-2" fill="#dcdcdc"/></g><g clip-path="url(#e)" transform="matrix(1.33333 0 0 -1.33333 0 667)"><path d="M380 198c16-16 19-40 15-61 0-1 0-1 0 0v15c-5 3-8 6-11 11s-4 11-6 17h1c10-7 13-15 16-26l-2 17a55 55 0 01-13 26v1" fill="#1a2e35"/><path d="M377 196c-3 0-4-4-6-6-2-1-3 0-3 1-3 3 0 6 3 8l-6-2c-1-1-2 0-2 1-1 4 4 6 7 6-1 1-6 5-4 6 3 2 9-3 11-4 2-3 6-6 6-9 0-4-4-2-6-1" fill="#ffc800"/><g clip-path="url(#f)" opacity=".1"><path d="M377 196c-3 0-4-4-6-6-2-1-3 0-3 1-3 3 0 6 3 8l-6-2c-1-1-2 0-2 1-1 4 4 6 7 6-1 1-6 5-4 6 3 2 9-3 11-4 2-3 6-6 6-9 0-4-4-2-6-1"/></g><path d="M378 195c-4 2-10 0-11 1-1 3 4 5 7 5-3 1-8 2-7 4 0 4 7 1 11-2 5-4 5-8 4-8h-4" fill="#ffc800"/><path d="M417 199c-17-15-21-39-18-60h1v15c5 3 9 6 11 11l7 16h-1c-10-7-14-14-17-24l3 16c2 9 7 19 14 26 0 0 0 1 0 0" fill="#1a2e35"/><path d="M420 197c2 0 4-4 6-6l3 1c2 3-1 6-3 9 2-1 3-3 5-3 2-1 3 0 3 1 1 4-4 6-7 6 1 1 6 4 4 6-3 2-9-3-10-4-3-2-7-5-7-9s3-1 6-1" fill="#ffc800"/><g clip-path="url(#g)" opacity=".1"><path d="M420 197c2 0 4-4 6-6l3 1c2 3-1 6-3 9 2-1 3-3 5-3 2-1 3 0 3 1 1 4-4 6-7 6 1 1 6 4 4 6-3 2-9-3-10-4-3-2-7-5-7-9s3-1 6-1"/></g><path d="M419 197h10c2 3-3 5-6 5 2 1 8 2 8 4-1 3-8 1-12-2-5-3-6-7-5-8s4 0 5 1" fill="#ffc800"/><path d="M400 160l-5-24h-2l5 22a110 110 0 011 22c-1 13-4 26-12 36-1 0 0 0 0 0 16-19 14-42 14-44 2 8 4 17 13 25v-1c-1-14-5-22-13-30a120 120 0 00-1-6" fill="#1a2e35"/><path d="M387 213c-3 2-7-2-10-2-2 0-3 0-3 2-1 4 4 6 8 7h-7c-2 0-3 1-2 3 1 5 7 4 11 2-2 2-5 8-1 8 3 1 7-7 8-9 1-4 3-9 1-13-1-4-4 0-5 2" fill="#ffc800"/><g clip-path="url(#h)" opacity=".1"><path d="M387 213c-3 2-7-2-10-2-2 0-3 0-3 2-1 4 4 6 8 7h-7c-2 0-3 1-2 3 1 5 7 4 11 2-2 2-5 8-1 8 3 1 7-7 8-9 1-4 3-9 1-13-1-4-4 0-5 2"/></g><path d="M387 212c-3 4-11 5-11 6 0 4 7 3 10 2-2 2-7 6-6 8 2 4 9-3 11-8 3-7 1-10 0-11l-4 3M410 155l7-54h-43l9 54z" fill="#ffc800"/></g><path d="M197 532H61h136l136 1 136-1h137-137l-136-1z" fill="#1a2e35"/><g clip-path="url(#i)" transform="matrix(1.33333 0 0 -1.33333 0 667)"><path d="M378 283a38 38 0 10-75 0 38 38 0 0075 0" fill="#ffc800"/><g clip-path="url(#j)" opacity=".3"><path d="M378 283a38 38 0 10-75 0 38 38 0 0075 0" fill="#fff"/></g><path d="M341 326a44 44 0 110-87 44 44 0 010 87m0-88a45 45 0 100 89 45 45 0 000-89M198 415a38 38 0 10-75 0 38 38 0 0075 0" fill="#ffc800"/><g clip-path="url(#k)" opacity=".3"><path d="M198 415a38 38 0 10-75 0 38 38 0 0075 0" fill="#fff"/></g><path d="M161 456a42 42 0 110-83 42 42 0 010 83m0-84a43 43 0 100 85 43 43 0 000-85m277-34a20 20 0 10-39 0 20 20 0 0039 0" fill="#ffc800"/><g clip-path="url(#l)" opacity=".3"><path d="M438 338a20 20 0 10-39 0 20 20 0 0039 0" fill="#fff"/></g><path d="M418 363a25 25 0 110-50 25 25 0 010 50m0-51a26 26 0 100 52 26 26 0 000-52m-238-58a20 20 0 10-39 0 20 20 0 0039 0" fill="#ffc800"/><g clip-path="url(#m)" opacity=".3"><path d="M180 254a20 20 0 10-39 0 20 20 0 0039 0" fill="#fff"/></g><path d="M161 279a24 24 0 110-49 24 24 0 010 49m0-50a25 25 0 100 51 25 25 0 000-51m109 205a20 20 0 10-39 0 20 20 0 0039 0" fill="#ffc800"/><g clip-path="url(#n)" opacity=".3"><path d="M270 434a20 20 0 10-39 0 20 20 0 0039 0" fill="#fff"/></g><path d="M250 459a25 25 0 110-50 25 25 0 010 50m0-51a26 26 0 100 52 26 26 0 000-52m-97-84a46 46 0 10-92 0 46 46 0 0092 0" fill="#ffc800"/><g clip-path="url(#o)" opacity=".3"><path d="M153 324a46 46 0 10-92 0 46 46 0 0092 0" fill="#fff"/></g><path d="M107 375a51 51 0 110-102 51 51 0 010 102m0-103a52 52 0 100 104 52 52 0 000-104m289 129a46 46 0 10-92 0 46 46 0 0092 0" fill="#ffc800"/><g clip-path="url(#p)" opacity=".3"><path d="M396 401a46 46 0 10-92 0 46 46 0 0092 0" fill="#fff"/></g><path d="M350 453a52 52 0 110-104 52 52 0 010 104m0-105a53 53 0 100 106 53 53 0 000-106m-192-24l14 1h13l12 7 12 8 12 8 12 7-12-8-12-8-12-7-12-8h-27m15-48l10 13 11 13 11 12 10 13h29l-7-1h-22 1l-11-12-10-13-11-12-11-13m19 109l8-7 8-8h-1 28l-14-1h-14l-8 8-7 8m58 24v-8l1-9-1-8v-4-4 33m14-74l32 1h81l16-1H263m37-37h-14l-7 8-7 8-4 4-3 4a426 426 0 00-7 8 426 426 0 007-8l4-4 3-3 7-8 7-8 14-1" fill="#ffc800"/><path d="M298 393a296 296 0 00-18 0l-5-5-5-5-10-9 10 10 5 5 5 5a365 365 0 0018-1" fill="#ffc800"/><path d="M177 417c-3-6-9-10-16-9l-2-5-6 3 2 4a15 15 0 003 27 15 15 0 0019-20m0 11a15 15 0 01-8 9 15 15 0 01-20-8c-3-7-1-15 5-19l-2-4v-1l7-3v1l2 5a15 15 0 0116 20m-4-10a11 11 0 00-17-3 11 11 0 003 18 11 11 0 0014-15m-5 15a11 11 0 11-10-20 11 11 0 0110 20m5-15a11 11 0 00-17-3 11 11 0 003 18 11 11 0 0014-15m-5 15a11 11 0 11-10-20 11 11 0 0110 20" fill="#375a64"/><path d="M173 418a11 11 0 00-15-5 11 11 0 0010 20c5-3 8-9 5-15m4 10a15 15 0 01-19 9 15 15 0 01-3-27l-2-4 6-3 2 5a15 15 0 0116 20" fill="#375a64"/><path d="M153 387l-9 4 7 15h1l7-4h1zm6 16l-6 3h-2l-7-15 9-4 7 15zm195-104c-1-2-2-4-5-4l-7 2a7 7 0 002 10 7 7 0 0010-8m0 6a8 8 0 01-14-2 8 8 0 012-7l7-2h2a8 8 0 013 11" fill="#375a64"/><path d="M354 301v-2c-1-2-2-4-5-4l-7 2a7 7 0 002 10 7 7 0 0010-6" fill="#375a64"/><path d="M352 292l-13 3-1 1 1 1 3-1 7-2 4-1zm-1 2l-1 1-8 2h-1l-3 1-1-3h2v-1l12-3h2v3zm1-34h-1l-28 8h-1l1 2 1-1 26-7h2zm-2 3h-1l-23 7h-1l-3 1v-3h1v-1l28-7 1-1 1 3zm0-9l-29 8v2h1l28-8zm0 2l-1 1-27 7-1 1-1-3 30-9 1 3z" fill="#375a64"/><path d="M350 260l-1-3-27 7 1 3zm-27 8l-1-4 28-8 1 4z" fill="#375a64"/><path d="M350 260l-1-3-27 7 1 3zm-11 33l11-3 1 1-12 4zm12-4l-13 4 1 2 12-3z" fill="#375a64"/><path d="M326 270c2 1 7 4 10 10l5 12 7-2-2-13a27 27 0 013-14zm24-7c-1 1-4 7-3 14l2 13-9 3v-1l-5-12a27 27 0 00-10-10l-1-1 26-7z" fill="#375a64"/><path d="M349 263l-23 7c2 1 7 4 10 10l5 12 7-2-2-13a27 27 0 013-14M98 356l-4 5-6-1a6 6 0 01-3-3v-7h1v1l-1 6a6 6 0 004 3l2 1a5 5 0 002-1l4-4v-1h1v1" fill="#375a64"/><path d="M98 355l-12-5 11 5 1 1zm-11-7v-1 1zm25-54l-24 51v1-1l24-50zm-13 59h-1l1 1v-1zm25-53h-1v-1 1l-23 51z" fill="#375a64"/><path d="M98 355l-12-5 12 5m0 0l-12-5 12 5m-13-5h1l12 5 1 1v-2l-1-1-11-5h-1zm15 4l-1 2h-2l-11-5-1-1h-1l2-2v-1l1 1 12 5 1 1zm-3 1l-11-5 12 5m0 0l-12-5 12 5m0 0l-12-5 12 5" fill="#375a64"/><path d="M99 353l-12-5 12 5zm0 0l-12-5 12 5zm1-2l-12-5-1-1-1 2h1v1l12 5h1v-2zm0 3l-1-1-12-5h-1v-1l1-2h1l12 5v1h1zm-1-1l-12-5 12 5zm0 0l-12-5 12 5zm23-60v-2l-1-3-3 3-6 3 1 2 1-1 1 2 2-1v2l2-1v2l2-1 1 2 1-1zm1 7h-2v-1h-2v-1h-2l-1-1h-1l-1-1h-2v-2l7-5 3-2 2 12z" fill="#375a64"/><path d="M122 292l-1-3-2 1zm0 1l-4-2 4-3v5zm-9 20l-6 11-5 12-5 12 6-12 6-11 5-12 5-11-6 11m-5-3l-6 12-5 11-5 12 6-11 5-12 6-11 4-12-5 11m-8 40l-12-5 24-50v1h2l1 1h1l1 1 2-1v2l2-1v2h2zm149 89a5 5 0 10-9 0 5 5 0 009 0" fill="#375a64"/><path d="M252 427v-2h-15v2a8 8 0 0015 0m8 15a5 5 0 10-9 0 5 5 0 009 0" fill="#375a64"/><path d="M264 429v-1h-16v1a8 8 0 0016 0M152 262a4 4 0 107-4 4 4 0 00-7 4m-1-8h1a6 6 0 011 0l1-1v-2h4v2l1 1h3l2 4-1 1-1 1 1 1 1 1-2 4-2-1h-1a8 8 0 010 1l-1 1v1h-5v-1-1a7 7 0 01-1-1h-1l-1 1-3-4 2-1v-2-1l-2-1 3-4zm17-4a3 3 0 100-5 3 3 0 000 5m-5-2a4 4 0 010-1v-1h-1l1-3 1 1h1l1-1v-1h3v1h3l2 3h-1l-1 1a5 5 0 010 1h1l1 1-2 3-1-1a1 1 0 00-1 0l-1 1v1h-3v-1-1h-1a1 1 0 00-1 0l-1 1-1-3zm255 90a5 5 0 100 9 5 5 0 000-9m9 5c-1 4-4 8-9 8s-8-4-8-8c-1-7 3-13 8-18 5 5 9 11 9 18m-82 83h11v6h-11zm12-1h-13v8h13z" fill="#375a64"/><path d="M359 431h-16v4h16zm-32-8l4-5 3 3-4 4zm4-6l-6 6 4 4 6-6z" fill="#375a64"/><path d="M332 425l-5-5-4 3 6 6zm35-4l3-3 5 5-3 2zm3-4l-4 4 6 6 4-4z" fill="#375a64"/><path d="M369 425l6-5 3 3-5 6zm-38-28h-3 3zm3-9v-1l-3-2-1 1zm-3 21l3-2-3 2zm10-29l-2-3zm-2 37l2-3-2 3zm12 0v3zm0-39v-4zm0 37l1-19h-2v19zm10-35l2-3h-1l-2 3zm1 37h1l-2-3h-1zm6-29l3-2v-1l-3 2zm0 19h-1l4 2z" fill="#375a64"/><path d="M351 372a25 25 0 100 50 25 25 0 000-50m20 47a29 29 0 01-26 7 30 30 0 01-15-7 30 30 0 1141 0" fill="#375a64"/><path d="M374 397h-4 4zm-43 0h-3 3zm3-9v-1l-3-2-1 1zm-3 21l3-2-3 2zm10-29l-2-3zm-2 37l2-3-2 3zm12 0v3zm0-39v-4zm0 37l1-19h-2v19zm10-35l2-3h-1l-2 3zm1 37h1l-2-3h-1zm6-29l3-2v-1l-3 2zm0 19h-1l4 2z" fill="#375a64"/><path d="M351 372a25 25 0 100 50 25 25 0 000-50m19 46a28 28 0 01-39 0 28 28 0 1139 0" fill="#375a64"/><path d="M374 397h-4 4zm-43 0h-3 3zm3-9v-1l-3-2-1 1zm-3 21l3-2-3 2zm10-29l-2-3zm-2 37l2-3-2 3zm12 0v3zm0-39v-4zm0 37l1-19h-2v19zm10-35l2-3h-1l-2 3zm1 37h1l-2-3h-1zm6-29l3-2v-1l-3 2zm0 19h-1l4 2z" fill="#375a64"/><path d="M374 397h-4 4zm-23 20v3zm-10-3l-2 3zm-7-7l-3 2zm-3-10h-3 3zm3-10l-3-2-1 1 4 2zm7-7l-2-3 2 3zm10-6v4zM363 377h-1l-2 3h1zM371 386v-1l-3 2v1zM374 397h-4 4zM371 409l-3-2h-1l4 2zM363 417l-2-3h-1l2 3zM352 396h-2v19h1z" fill="#375a64"/><path d="M352 397a1 1 0 10-2 0 1 1 0 002 0" fill="#375a64"/></g><g clip-path="url(#q)" transform="matrix(1.33333 0 0 -1.33333 0 667)"><path d="M273 352c-2-15-11-17-13-21l-2-8h-16l-2 8c-1 4-11 6-13 21-1 10 7 26 23 26s24-16 23-26" fill="#ffc800"/><path d="M246 322l-5 25h1l5-25zm9 0h-1l4 25h1z" fill="#fff"/><path d="M247 348a1 1 0 01-1 0c-1-1 0-4 1-6v1l1 5a1 1 0 01-1 0m6 0l-1-2 1-4c1 2 2 5 1 6h-1m-3-9l-3 2v1l-2-1c-2 0-3 5-3 5l3-5 1 1v6l1 1 1-1c1-1 0-4-1-6l3-3 3 2v1l-1 4 1 3 1-1v-6l1-1c2 0 3 3 3 5h1c0-1-2-5-4-5h-2c-1-2-2-2-3-2z" fill="#fff"/><path d="M260 320h-19v4h19zm0-4h-19v3h19zm0-5h-19v4h19zm-10 73l-1 3 1 3v-3-3m-14-4a9 9 0 00-2 2l-2 3 3-2 1-3m-11-11a9 9 0 00-3 1l-2 2 3-1a9 9 0 002-2m-3-14a9 9 0 00-3-1l-3 1h6m4-14a9 9 0 00-3-2l-3-2 3 3a9 9 0 003 1m49 0a9 9 0 003-1l2-2-3 1a9 9 0 00-2 2m4 15h6l-3-1-3 1m-4 14a9 9 0 002 2l3 1a9 9 0 00-2-2 9 9 0 00-3-1m-11 10a9 9 0 001 3l2 2-1-3-2-2" fill="#1a2e35"/></g><g clip-path="url(#r)" transform="matrix(1.33333 0 0 -1.33333 0 667)"><path d="M288 224v-1l-4-1-7 12 4-13-7-1c-4 15-9 26-8 22l2-23-53-7-5 16a45 45 0 01-1-17l-11-1-2 9a51 51 0 00-1 18l5 17c2 4 3 7 3 11v8c0 11 4 20 13 23 15 19 32 14 39 1l2-4 7-19 3-6c5-11 16-16 21-44" fill="#1a2e35"/><path d="M212 293c-5-4-8-9-8-16l-1-13-5-12a34 34 0 01-6-19 60 60 0 015-22c-3 6-4 16-4 23 1 9 4 14 8 21a34 34 0 014 17l1 11c1 4 4 7 7 10h-1m66-36c-5 5-10 10-13 17l-8 19c5-11 7-23 15-32 4-4 9-9 12-15a61 61 0 006-20h1c-1 12-5 23-13 31" fill="#1a2e35"/><path d="M266 216c32-33 71-102 64-116-9-15-55 32-53 34 1 2-15 44-26 74-12 31 7 16 15 8" fill="#ffaba1"/><path d="M305 176l-45-8s-12 32-14 50c-1 10 5 11 12 5 26-18 47-47 47-47" fill="#ffc800"/><path d="M286 175a1 1 0 110-1 1 1 0 010 1m-14 0a1 1 0 110-1 1 1 0 010 1m-14 0h-1l1-1a1 1 0 010 1m28 22a1 1 0 110-1 1 1 0 010 1m-14 0a1 1 0 110-1 1 1 0 010 1m-14 0a1 1 0 110-1 1 1 0 010 1m35-11a1 1 0 110-1 1 1 0 010 2m-14 0a1 1 0 110-2 1 1 0 010 2m-14 0a1 1 0 110-2 1 1 0 010 2m-7 33a1 1 0 110-2 1 1 0 010 2m7-11a1 1 0 110-2 1 1 0 010 2m-13-1a1 1 0 10-2 0 1 1 0 002 0" fill="#fff"/><path d="M260 176c7 1 26 6 38 7a682 682 0 00-38-8v1" fill="#1a2e35"/><g clip-path="url(#s)" opacity=".1"><path d="M299 175l-39-7s-12 32-14 50c-1 7 1 9 5 9z"/></g><path d="M285 101H170s10 81 47 123c10 11 28 8 37 0l8-9c8-10 21-34 22-41 2-11-7-22-7-22z" fill="#ffc800"/><path d="M272 109a1 1 0 110-2 1 1 0 010 2m-14 0a1 1 0 110-2 1 1 0 010 2m-14 0a1 1 0 110-2 1 1 0 010 2m-14 0a1 1 0 110-2 1 1 0 010 2m-15 0a1 1 0 110-2 1 1 0 010 2m-14 0a1 1 0 110-2 1 1 0 010 2m-14 0a1 1 0 110-2 1 1 0 010 2m-14 0a1 1 0 110-2 1 1 0 010 2m99 22a1 1 0 110-2 1 1 0 010 2m-14 0a1 1 0 110-2 1 1 0 010 2m-14 0a1 1 0 110-2 1 1 0 010 2m-14 0a1 1 0 110-2 1 1 0 010 2m-15 0a1 1 0 110-2 1 1 0 010 2m-14 0a1 1 0 110-2 1 1 0 010 2m-14 0a1 1 0 110-2 1 1 0 010 2m92-11a1 1 0 110-2 1 1 0 010 2m-14 0a1 1 0 110-1 1 1 0 010 1m-14 0a1 1 0 110-1 1 1 0 010 1m-14 0a1 1 0 110-1 1 1 0 010 1m-14 0a1 1 0 110-1 1 1 0 010 1m-15 0a1 1 0 110-1 1 1 0 010 1m-14 0a1 1 0 110-1 1 1 0 010 1m-14 0a1 1 0 110-1 1 1 0 010 1m92 33a1 1 0 110-2 1 1 0 010 2m-14 0a1 1 0 110-2 1 1 0 010 2m-14 0a1 1 0 110-2 1 1 0 010 2m-14 0a1 1 0 110-2 1 1 0 010 2m-15 0a1 1 0 110-2 1 1 0 010 2m-14 0a1 1 0 110-2 1 1 0 010 2m-14 0a1 1 0 110-2 1 1 0 010 2m78-11a1 1 0 110-1 1 1 0 010 1m-14 0a1 1 0 110-1 1 1 0 010 1m-14 0a1 1 0 110-1 1 1 0 010 1m-14 0a1 1 0 110-1 1 1 0 010 1m-15 0a1 1 0 110-1 1 1 0 010 1m-14 0a1 1 0 110-1 1 1 0 010 1m-14 0a1 1 0 110-1 1 1 0 010 1m92 33a1 1 0 110-1 1 1 0 010 1m-14 0a1 1 0 110-1 1 1 0 010 1m-14 0a1 1 0 110-1 1 1 0 010 1m-14 0a1 1 0 110-1 1 1 0 010 1m-15 0a1 1 0 110-1 1 1 0 010 1m-14 0a1 1 0 110-1 1 1 0 010 1m78-11a1 1 0 110-1 1 1 0 010 1m-14 0a1 1 0 110-1 1 1 0 010 1m-14 0a1 1 0 110-1 1 1 0 010 1m-14 0a1 1 0 110-1 1 1 0 010 1m-14 0a1 1 0 110-1 1 1 0 010 1m-15 0a1 1 0 110-1 1 1 0 010 1m-14 0a1 1 0 110-1 1 1 0 010 1m78 33a1 1 0 110-1 1 1 0 010 1m-14 0a1 1 0 110-1 1 1 0 010 1m-14 0a1 1 0 110-1 1 1 0 010 1m-14 0a1 1 0 110-1 1 1 0 010 1m-15 0a1 1 0 110-1 1 1 0 010 1m-14 0a1 1 0 110-1 1 1 0 010 1m78-11a1 1 0 01-1 0l1-1h1l-1 1m-14 0a1 1 0 110-1 1 1 0 010 1m-14 0a1 1 0 110-1 1 1 0 010 1m-14 0a1 1 0 110-1 1 1 0 010 1m-14 0a1 1 0 110-1 1 1 0 010 1m-15 0a1 1 0 110-1 1 1 0 010 1m-14 0v-1l1 1h-1m65 33h-1a1 1 0 110-1 1 1 0 011 1m-15 0a1 1 0 110-1 1 1 0 010 1m-14 0a1 1 0 110-1 1 1 0 010 1m-15 0a1 1 0 110-1 1 1 0 010 1m50-11a1 1 0 110-1 1 1 0 010 2m-14 0a1 1 0 110-2 1 1 0 010 2m-14 0a1 1 0 110-2 1 1 0 010 2m-14 0a1 1 0 110-2 1 1 0 010 2m-15 0a1 1 0 110-2 1 1 0 010 2m30 21a1 1 0 10-2 0 1 1 0 002 0" fill="#fff"/><path d="M285 175l-6 12a333 333 0 01-7 12v1l-1 4-2 5 1-5 1-2-3 4-4 7 7-12a372 372 0 0010-18l2-6c2-4 2-9 0-13l-6-12v-1c5 7 10 15 8 24" fill="#1a2e35"/><path d="M330 100c-8-10-28-12-77-21-7-1-28 45-21 46l47 9c23 1 55-27 50-34" fill="#ffaba1"/><path d="M242 128s-21-3-32-8c-14-7-23-18-27-23-8-11-19-41-11-46 8-4 18 28 18 28s-16-31-6-35c10-3 20 34 20 34s-15-32-5-34c9-1 19 32 19 32s-13-27-4-29c9-3 21 28 21 28 22-1 33 7 40 14 2 1-33 39-33 39" fill="#ffaba1"/><path d="M195 90a131 131 0 01-10-23c-4-9-4-16-4-15 2 9 7 23 9 26l5 12m13-6l-7-14-5-14c0-1 0-1 0 0l6 14 6 14m13-3a116 116 0 01-9-22l9 22m80 47a35 35 0 01-21 6 60 60 0 0021-6" fill="#1a2e35"/><path d="M230 231c-4-2-4-7 1-13 7-9 26-17 26-17s1 18-5 26c-4 6-17 6-22 4" fill="#ffaba1"/><path d="M231 227c1-2 11-13 20-12 3 0 1 16 1 16v1l2 16-21 10-3 2v-19l1-14" fill="#ffaba1"/><path d="M230 250a33 33 0 0122-18l2 16-21 10-3 2v-10" fill="#1a2e35"/><path d="M273 276c7-28-9-35-15-37-5-2-24-6-34 21-11 27 0 39 12 43 13 4 29 1 37-27" fill="#ffaba1"/><path d="M266 281h-2l-2 1-1 1 3 1 2-1v-2m-18-4l1 1 2 1v1h-3l-2-1 2-2m5-6c0-2 1-5-1-6 2 1 2 4 1 6" fill="#1a2e35"/><path d="M251 272c-3 0-2-6 1-6 3 1 1 7-1 6" fill="#1a2e35"/><path d="M250 272l-2-2-2 1 2-2 2 2v1m14 2c0-2 1-5 3-5-3 0-3 3-3 5" fill="#1a2e35"/><path d="M265 276c3 1 5-5 2-6s-5 6-2 6" fill="#1a2e35"/><path d="M266 276h2l1 1h1l-1-3-3 2m-11-21l2-1 2 1a3 3 0 00-2-1l-2 1m8 9l1-4s-4-2-8 1h7l-2 4 3 1c-2 5-5 11-6 17l8-18-3-1" fill="#1a2e35"/><path d="M262 260l-2-3h-2c-2 0-2 1-2 2v2l6-1" fill="#1a2e35"/><path d="M260 257h-2c-2 0-2 1-2 2 2 0 3 0 4-2" fill="#ff9bbe"/><path d="M223 261s-10 8-10 22c1 14 16 25 33 24 0 0-23-6-26-19-3-12 3-27 3-27" fill="#ffc800"/><path d="M229 259c5 1 3 13 3 13s20 10 16 28c0 0 7-10 20-11 0 0-7 19-23 18 0 0-21 0-27-18-6-19 7-31 11-31" fill="#1a2e35"/><path d="M248 302a21 21 0 00-1-17v-2l-1-1-1-1-1-2-1-1-1-1-1-1-2-1a65 65 0 00-3-2l3 3 2 1v1l1 1 1 1 1 2 1 1v1l1 1a24 24 0 012 12v5" fill="#1a2e35"/><path d="M229 260s-8 8-12 5c-3-3 3-15 9-16 5-1 6 4 6 4z" fill="#ffaba1"/><path d="M219 262c4-1 6-4 8-7h-4l3-1 2-2h1c-1 5-5 10-10 10" fill="#1a2e35"/><path d="M228 251a1 1 0 10-2 0 1 1 0 002 0m-3 1a1 1 0 10-2 0 1 1 0 002 0" fill="#fff"/><path d="M218 262h-2a1 1 0 100 1h1l1-1h-1m1-2l-2-1a1 1 0 100 2h1a1 1 0 001-1" fill="#ffc800"/><path d="M282 245s-4 10-10 7c-7-3-2-12-2-12z" fill="#ff9bbe"/><path d="M301 171l12 6-31 68-12-5z" fill="#ffc800"/><path d="M270 237l14 6-1 3-14-6zm2-3l13 6-1 3-14-6z" fill="#2b454e"/><path d="M301 171l8-6 3-2v3l1 11-2 1v-2l-2 1-1-2-2 1v-2l-2 1v-3l-2 2-1-3" fill="#ececec"/><path d="M310 165l2-2v3z" fill="#2b454e"/><path d="M206 210c-15-25-41-77-31-97 9-18 83 9 98 14 6 2-1 53-8 52-15-4-47-19-47-18l7 44c5 32-9 22-19 5" fill="#ffaba1"/><path d="M310 203c4-5-1-9-1-9s5 0 7-4c3-3-1-9-1-9s4-2 7-5c2-4-1-11-1-11s3-4 3-8c0-9-10-15-17-19-10-6-30-9-34-11l-26 43s25 26 33 30 26 7 30 3" fill="#ffaba1"/><path d="M309 195c-9-2-16-6-24-9v-1l24 9v1m6-14l-6-2a189 189 0 01-16-10 295 295 0 0017 9l5 2-1 1m7-16l-5-3a504 504 0 00-15-8l11 5 5 2 4 3m-103-3l-7-7-6-7 7 7 6 7m-26-54l21 3 5 1 5 1 5 2 5 1a470 470 0 0120 6l10 3 10 4 11 3 12 3a60 60 0 0120 10 60 60 0 00-20-11 247 247 0 00-23-7h1l-10-3-10-4a344 344 0 00-41-10 315 315 0 00-5-1l-6-1h-10" fill="#1a2e35"/><path d="M175 170l47-2s6 33 6 51c0 11-6 10-13 4-23-22-40-53-40-53" fill="#ffc800"/><path d="M215 175a1 1 0 110-1 1 1 0 010 1m-14 0a1 1 0 110-1 1 1 0 010 1m-14 0a1 1 0 110-1 1 1 0 010 1m28 22a1 1 0 110-1 1 1 0 010 1m-14 0a1 1 0 110-1 1 1 0 010 1m22-11a1 1 0 110-1 1 1 0 010 2m-15 0a1 1 0 110-2 1 1 0 010 2m-14 0a1 1 0 110-2 1 1 0 010 2m21 33a1 1 0 110-2 1 1 0 010 2m8-11a1 1 0 110-2 1 1 0 010 2m-14-1a1 1 0 10-1 0 1 1 0 001 0" fill="#fff"/><path d="M220 175a553 553 0 010 0M228 202l-2-6v1a292 292 0 011 8l-5-37h-3 3a304 304 0 014 26 82 82 0 012 8" fill="#1a2e35"/></g></svg>